<svg width="166" height="163" viewBox="0 0 166 163" fill="none" xmlns="http://www.w3.org/2000/svg">
<path d="M91.973 140.288C128.605 140.288 158.304 110.589 158.304 73.8259C158.304 37.0627 128.475 7.36426 91.973 7.36426C55.3406 7.36426 25.6422 37.0627 25.6422 73.8259C25.6422 110.589 55.3406 140.288 91.973 140.288Z" fill="#EAEEF9"/>
<path d="M153.986 30.2593C156.949 30.2593 159.35 27.8578 159.35 24.8953C159.35 21.9328 156.949 19.5312 153.986 19.5312C151.024 19.5312 148.622 21.9328 148.622 24.8953C148.622 27.8578 151.024 30.2593 153.986 30.2593Z" fill="#EAEEF9"/>
<path d="M161.837 9.32648C163.86 9.32648 165.5 7.68639 165.5 5.66324C165.5 3.64009 163.86 2 161.837 2C159.814 2 158.174 3.64009 158.174 5.66324C158.174 7.68639 159.814 9.32648 161.837 9.32648Z" fill="#EAEEF9"/>
<path d="M29.1751 30.1282C31.1982 30.1282 32.8383 28.4882 32.8383 26.465C32.8383 24.4418 31.1982 22.8018 29.1751 22.8018C27.1519 22.8018 25.5118 24.4418 25.5118 26.465C25.5118 28.4882 27.1519 30.1282 29.1751 30.1282Z" fill="#EAEEF9"/>
<path d="M6.80316 100.776C10.5604 100.776 13.6063 97.7304 13.6063 93.9731C13.6063 90.2158 10.5604 87.1699 6.80316 87.1699C3.04588 87.1699 0 90.2158 0 93.9731C0 97.7304 3.04588 100.776 6.80316 100.776Z" fill="#EAEEF9"/>
<g filter="url(#filter0_d_2836_348)">
<path d="M137.11 40.595L138.157 124.85C138.157 127.728 135.802 129.952 132.923 129.952H50.7621C47.8839 129.952 45.5289 127.597 45.5289 124.85V16.5223C45.5289 13.644 47.8839 11.4199 50.7621 11.4199H110.29L137.11 40.595Z" fill="url(#paint0_linear_2836_348)"/>
</g>
<path d="M85.5632 113.075H82.5541C81.8999 113.075 81.3766 112.42 81.3766 111.635C81.3766 110.85 81.8999 110.196 82.5541 110.196H85.5632C86.2173 110.196 86.7406 110.85 86.7406 111.635C86.7406 112.551 86.2173 113.075 85.5632 113.075Z" fill="#CED7E2"/>
<path d="M76.4042 113.075H58.873C58.2189 113.075 57.6956 112.42 57.6956 111.635C57.6956 110.85 58.2189 110.196 58.873 110.196H76.4042C77.0584 110.196 77.5817 110.85 77.5817 111.635C77.5817 112.551 77.0584 113.075 76.4042 113.075Z" fill="#D5DDEA"/>
<path d="M98.7762 29.0813H59.3964C58.4805 29.0813 57.6956 28.2963 57.6956 27.3805C57.6956 26.4647 58.4805 25.6797 59.3964 25.6797H98.7762C99.692 25.6797 100.477 26.4647 100.477 27.3805C100.477 28.2963 99.692 29.0813 98.7762 29.0813Z" fill="#D5DDEA"/>
<path d="M74.5726 38.5012H59.3964C58.4805 38.5012 57.6956 37.7162 57.6956 36.8004C57.6956 35.8846 58.4805 35.0996 59.3964 35.0996H74.4418C75.3576 35.0996 76.1426 35.8846 76.1426 36.8004C76.1426 37.7162 75.3576 38.5012 74.5726 38.5012Z" fill="#D5DDEA"/>
<path d="M110.289 11.4199V34.7077C110.289 37.9784 113.168 40.595 116.438 40.595H137.11" fill="#D5DDEA"/>
<path d="M143.39 131.914C142.081 131.914 140.773 131.391 139.727 130.214L117.878 108.365L117.093 108.888C110.028 114.121 101.786 116.869 93.4127 116.869C83.3388 116.869 73.2649 112.813 65.8076 105.748C57.9578 98.2911 53.6404 88.2171 53.6404 77.2274C53.6404 55.3788 71.4333 37.5859 93.2819 37.5859C108.196 37.5859 121.279 45.4357 128.344 58.7804C135.278 71.9942 134.362 87.4322 125.859 99.861L125.335 100.646L147.315 122.625C149.539 124.85 149.015 127.074 148.623 128.251C147.576 130.344 145.483 131.914 143.39 131.914ZM93.2819 48.4448C77.3206 48.4448 64.4993 61.397 64.4993 77.2274C64.4993 95.282 79.2831 106.141 93.6744 106.141C102.44 106.141 110.421 102.216 116.046 95.1511C122.98 86.5164 124.158 74.8725 119.317 64.7986C114.345 54.7247 104.402 48.4448 93.2819 48.4448Z" fill="#B9BECA"/>
<path d="M80.8533 81.9371C82.5541 81.9371 83.9932 80.4979 83.9932 78.7971C83.9932 77.0964 82.5541 75.6572 80.8533 75.6572C79.1525 75.6572 77.7134 77.0964 77.7134 78.7971C77.7134 80.4979 79.1525 81.9371 80.8533 81.9371Z" fill="#989FB0"/>
<path d="M104.925 81.9371C106.626 81.9371 108.065 80.4979 108.065 78.7971C108.065 77.0964 106.626 75.6572 104.925 75.6572C103.225 75.6572 101.785 77.0964 101.785 78.7971C101.785 80.6288 103.225 81.9371 104.925 81.9371Z" fill="#989FB0"/>
<path d="M80.7301 68.4093L73.823 72.1387L74.7554 73.8654L81.6624 70.136L80.7301 68.4093Z" fill="#989FB0"/>
<path d="M104.499 68.359L103.566 70.0859L110.474 73.8146L111.406 72.0876L104.499 68.359Z" fill="#989FB0"/>
<path d="M92.8894 89.2634C94.9126 89.2634 96.5527 88.0333 96.5527 86.516C96.5527 84.9986 94.9126 83.7686 92.8894 83.7686C90.8663 83.7686 89.2262 84.9986 89.2262 86.516C89.2262 88.0333 90.8663 89.2634 92.8894 89.2634Z" fill="#989FB0"/>
<defs>
<filter id="filter0_d_2836_348" x="23.5289" y="0.419922" width="136.628" height="162.532" filterUnits="userSpaceOnUse" color-interpolation-filters="sRGB">
<feFlood flood-opacity="0" result="BackgroundImageFix"/>
<feColorMatrix in="SourceAlpha" type="matrix" values="0 0 0 0 0 0 0 0 0 0 0 0 0 0 0 0 0 0 127 0" result="hardAlpha"/>
<feOffset dy="11"/>
<feGaussianBlur stdDeviation="11"/>
<feColorMatrix type="matrix" values="0 0 0 0 0.397708 0 0 0 0 0.47749 0 0 0 0 0.575 0 0 0 0.27 0"/>
<feBlend mode="normal" in2="BackgroundImageFix" result="effect1_dropShadow_2836_348"/>
<feBlend mode="normal" in="SourceGraphic" in2="effect1_dropShadow_2836_348" result="shape"/>
</filter>
<linearGradient id="paint0_linear_2836_348" x1="91.8126" y1="8.67816" x2="91.8126" y2="131.23" gradientUnits="userSpaceOnUse">
<stop stop-color="#FDFEFF"/>
<stop offset="0.9964" stop-color="#ECF0F5"/>
</linearGradient>
</defs>
</svg>
