<svg width="209" height="50" viewBox="0 0 209 50" fill="none" xmlns="http://www.w3.org/2000/svg">
<path d="M89.9 39.03C89.9 38.55 89.94 38.04 90.02 37.5C90.12 36.94 90.26 36.35 90.44 35.73C90.64 35.09 90.88 34.42 91.16 33.72L93.32 34.56C93.12 35.12 92.94 35.65 92.78 36.15C92.64 36.65 92.53 37.12 92.45 37.56C92.39 38 92.36 38.42 92.36 38.82C92.36 39.66 92.54 40.37 92.9 40.95C93.28 41.55 93.8 42.04 94.46 42.42C95.12 42.8 95.87 43.08 96.71 43.26C97.57 43.44 98.48 43.53 99.44 43.53C100.6 43.53 101.68 43.43 102.68 43.23C103.7 43.03 104.59 42.74 105.35 42.36C106.13 42 106.74 41.58 107.18 41.1C107.62 40.64 107.84 40.14 107.84 39.6C107.84 39.34 107.74 39.1 107.54 38.88C107.34 38.66 107.04 38.45 106.64 38.25C106.24 38.05 105.76 37.86 105.2 37.68C104.64 37.48 104 37.28 103.28 37.08L103.85 34.59C104.89 34.99 105.81 35.33 106.61 35.61C107.41 35.87 108.11 36.08 108.71 36.24C109.31 36.4 109.83 36.52 110.27 36.6C110.71 36.66 111.08 36.69 111.38 36.69C111.8 36.69 112.1 36.81 112.28 37.05C112.48 37.27 112.58 37.54 112.58 37.86C112.58 38.18 112.44 38.48 112.16 38.76C111.88 39.02 111.52 39.15 111.08 39.15C110.96 39.15 110.84 39.15 110.72 39.15C110.6 39.15 110.47 39.15 110.33 39.15C110.21 39.15 110.09 39.15 109.97 39.15C110.01 39.33 110.04 39.47 110.06 39.57C110.08 39.69 110.09 39.84 110.09 40.02C110.09 40.76 109.83 41.48 109.31 42.18C108.81 42.88 108.07 43.51 107.09 44.07C106.11 44.65 104.92 45.11 103.52 45.45C102.14 45.79 100.56 45.96 98.78 45.96C97.2 45.96 95.73 45.7 94.37 45.18C93.03 44.68 91.95 43.92 91.13 42.9C90.31 41.88 89.9 40.59 89.9 39.03ZM109.89 39.15L110.19 36.69C110.83 36.69 111.35 36.65 111.75 36.57C112.15 36.47 112.48 36.24 112.74 35.88C113.02 35.5 113.28 34.91 113.52 34.11C113.76 33.31 114.04 32.19 114.36 30.75L116.61 31.38C116.49 31.88 116.35 32.48 116.19 33.18C116.03 33.88 115.95 34.52 115.95 35.1C115.95 35.42 116.03 35.7 116.19 35.94C116.35 36.18 116.62 36.37 117 36.51C117.4 36.63 117.93 36.69 118.59 36.69C119.19 36.69 119.68 36.64 120.06 36.54C120.44 36.44 120.75 36.2 120.99 35.82C121.25 35.44 121.48 34.83 121.68 33.99C121.88 33.15 122.09 32 122.31 30.54L124.59 30.96C124.53 31.32 124.46 31.76 124.38 32.28C124.3 32.8 124.22 33.32 124.14 33.84C124.08 34.34 124.05 34.76 124.05 35.1C124.05 35.38 124.11 35.65 124.23 35.91C124.37 36.15 124.63 36.34 125.01 36.48C125.41 36.62 126 36.69 126.78 36.69C127.78 36.69 128.5 36.48 128.94 36.06C129.4 35.64 129.63 35 129.63 34.14C129.63 33.68 129.62 33.2 129.6 32.7C129.58 32.18 129.54 31.61 129.48 30.99C129.44 30.35 129.37 29.62 129.27 28.8L131.46 28.65C131.58 30.27 131.71 31.6 131.85 32.64C132.01 33.68 132.23 34.5 132.51 35.1C132.81 35.68 133.21 36.09 133.71 36.33C134.21 36.57 134.87 36.69 135.69 36.69C136.11 36.69 136.41 36.81 136.59 37.05C136.79 37.27 136.89 37.54 136.89 37.86C136.89 38.18 136.75 38.48 136.47 38.76C136.19 39.02 135.83 39.15 135.39 39.15C134.71 39.15 134.1 39.06 133.56 38.88C133.04 38.68 132.58 38.42 132.18 38.1C131.8 37.76 131.48 37.38 131.22 36.96C130.98 36.52 130.81 36.06 130.71 35.58L131.25 35.76C131.03 36.66 130.68 37.36 130.2 37.86C129.74 38.34 129.19 38.68 128.55 38.88C127.91 39.06 127.23 39.15 126.51 39.15C125.63 39.15 124.91 39.04 124.35 38.82C123.79 38.6 123.35 38.27 123.03 37.83C122.73 37.37 122.53 36.79 122.43 36.09H123.45C123.07 36.95 122.67 37.6 122.25 38.04C121.83 38.48 121.31 38.78 120.69 38.94C120.07 39.08 119.25 39.15 118.23 39.15C117.73 39.15 117.19 39.07 116.61 38.91C116.05 38.75 115.56 38.44 115.14 37.98C114.72 37.5 114.47 36.79 114.39 35.85L115.29 35.67C114.95 36.69 114.53 37.45 114.03 37.95C113.55 38.43 112.97 38.75 112.29 38.91C111.61 39.07 110.81 39.15 109.89 39.15ZM134.178 39.15L134.478 36.69C135.318 36.69 135.978 36.62 136.458 36.48C136.938 36.32 137.298 36.03 137.538 35.61C137.798 35.17 138.018 34.54 138.198 33.72C138.378 32.9 138.598 31.83 138.858 30.51L141.198 30.96C141.118 31.32 141.028 31.72 140.928 32.16C140.828 32.6 140.738 33.04 140.658 33.48C140.598 33.9 140.568 34.27 140.568 34.59C140.568 34.99 140.658 35.35 140.838 35.67C141.018 35.99 141.408 36.24 142.008 36.42C142.608 36.6 143.528 36.69 144.768 36.69C145.188 36.69 145.488 36.81 145.668 37.05C145.868 37.27 145.968 37.54 145.968 37.86C145.968 38.18 145.828 38.48 145.548 38.76C145.268 39.02 144.908 39.15 144.468 39.15C143.168 39.15 142.148 39.04 141.408 38.82C140.668 38.58 140.128 38.23 139.788 37.77C139.448 37.29 139.218 36.71 139.098 36.03L139.998 36.09C139.678 36.73 139.328 37.25 138.948 37.65C138.588 38.05 138.188 38.36 137.748 38.58C137.308 38.8 136.798 38.95 136.218 39.03C135.638 39.11 134.958 39.15 134.178 39.15ZM138.858 27.42C138.438 27.42 138.078 27.28 137.778 27C137.498 26.7 137.358 26.35 137.358 25.95C137.358 25.55 137.498 25.2 137.778 24.9C138.078 24.6 138.438 24.45 138.858 24.45C139.258 24.45 139.598 24.6 139.878 24.9C140.178 25.2 140.328 25.55 140.328 25.95C140.328 26.35 140.178 26.7 139.878 27C139.598 27.28 139.258 27.42 138.858 27.42ZM143.261 39.15L143.531 36.69C144.571 36.69 145.591 36.61 146.591 36.45C147.591 36.29 148.571 36.06 149.531 35.76C150.491 35.46 151.411 35.1 152.291 34.68C153.191 34.24 154.041 33.74 154.841 33.18C154.321 32.72 153.721 32.32 153.041 31.98C152.361 31.64 151.611 31.38 150.791 31.2C149.991 31 149.141 30.9 148.241 30.9C147.921 30.9 147.621 30.91 147.341 30.93C147.061 30.95 146.781 30.99 146.501 31.05C146.221 31.09 145.901 31.15 145.541 31.23L145.061 28.95C145.601 28.79 146.141 28.67 146.681 28.59C147.221 28.49 147.741 28.44 148.241 28.44C149.281 28.44 150.221 28.57 151.061 28.83C151.901 29.07 152.661 29.37 153.341 29.73C154.041 30.09 154.691 30.45 155.291 30.81C155.911 31.17 156.511 31.48 157.091 31.74C157.671 31.98 158.271 32.1 158.891 32.1H159.521L159.731 34.26C158.871 34.26 158.081 34.38 157.361 34.62C156.641 34.86 155.931 35.17 155.231 35.55C154.551 35.91 153.831 36.3 153.071 36.72C152.311 37.12 151.471 37.51 150.551 37.89C149.631 38.25 148.571 38.55 147.371 38.79C146.191 39.03 144.821 39.15 143.261 39.15ZM151.631 44.58C151.211 44.58 150.851 44.43 150.551 44.13C150.271 43.85 150.131 43.51 150.131 43.11C150.131 42.71 150.271 42.36 150.551 42.06C150.851 41.76 151.211 41.61 151.631 41.61C152.031 41.61 152.371 41.76 152.651 42.06C152.951 42.36 153.101 42.71 153.101 43.11C153.101 43.51 152.951 43.85 152.651 44.13C152.371 44.43 152.031 44.58 151.631 44.58ZM159.847 45.96L158.977 43.68C160.437 43.2 161.647 42.65 162.607 42.03C163.587 41.41 164.357 40.75 164.917 40.05C165.497 39.35 165.907 38.64 166.147 37.92C166.387 37.18 166.507 36.47 166.507 35.79C166.507 34.81 166.287 33.82 165.847 32.82C165.427 31.8 164.957 30.84 164.437 29.94L166.627 28.83C167.007 29.53 167.337 30.22 167.617 30.9C167.917 31.58 168.177 32.22 168.397 32.82C168.637 33.42 168.827 33.97 168.967 34.47C169.247 35.33 169.607 35.92 170.047 36.24C170.507 36.54 171.127 36.69 171.907 36.69C172.327 36.69 172.627 36.81 172.807 37.05C173.007 37.27 173.107 37.54 173.107 37.86C173.107 38.18 172.967 38.48 172.687 38.76C172.407 39.02 172.047 39.15 171.607 39.15C170.727 39.15 170.007 39 169.447 38.7C168.907 38.38 168.497 37.97 168.217 37.47C167.937 36.95 167.747 36.41 167.647 35.85L168.607 36.39C168.607 37.71 168.307 38.91 167.707 39.99C167.127 41.09 166.377 42.04 165.457 42.84C164.537 43.66 163.577 44.33 162.577 44.85C161.577 45.37 160.667 45.74 159.847 45.96ZM170.422 39.15L170.722 36.69C171.282 36.69 171.722 36.57 172.042 36.33C172.382 36.09 172.702 35.69 173.002 35.13C173.322 34.57 173.722 33.82 174.202 32.88C174.682 31.92 175.162 31.14 175.642 30.54C176.142 29.92 176.622 29.44 177.082 29.1C177.562 28.74 178.012 28.49 178.432 28.35C178.852 28.21 179.242 28.14 179.602 28.14C180.262 28.14 180.852 28.29 181.372 28.59C181.892 28.87 182.382 29.36 182.842 30.06C183.302 30.74 183.772 31.68 184.252 32.88C184.712 33.98 185.122 34.81 185.482 35.37C185.862 35.91 186.252 36.27 186.652 36.45C187.072 36.61 187.542 36.69 188.062 36.69C188.482 36.69 188.782 36.81 188.962 37.05C189.162 37.27 189.262 37.54 189.262 37.86C189.262 38.18 189.122 38.48 188.842 38.76C188.562 39.02 188.202 39.15 187.762 39.15C186.982 39.15 186.262 39.02 185.602 38.76C184.962 38.5 184.422 38.09 183.982 37.53L184.402 36.9C184.182 37.52 183.882 38.03 183.502 38.43C183.142 38.81 182.732 39.09 182.272 39.27C181.812 39.47 181.322 39.57 180.802 39.57C180.142 39.57 179.462 39.43 178.762 39.15C178.082 38.87 177.422 38.47 176.782 37.95C176.142 37.43 175.582 36.82 175.102 36.12C174.582 37.04 174.082 37.72 173.602 38.16C173.142 38.58 172.662 38.85 172.162 38.97C171.662 39.09 171.082 39.15 170.422 39.15ZM176.242 33.84C176.582 34.4 176.942 34.89 177.322 35.31C177.722 35.73 178.122 36.08 178.522 36.36C178.922 36.62 179.312 36.82 179.692 36.96C180.092 37.08 180.452 37.14 180.772 37.14C181.472 37.14 181.982 36.89 182.302 36.39C182.642 35.89 182.632 35.19 182.272 34.29C182.092 33.83 181.902 33.38 181.702 32.94C181.522 32.5 181.322 32.1 181.102 31.74C180.882 31.36 180.632 31.07 180.352 30.87C180.072 30.65 179.762 30.54 179.422 30.54C179.122 30.54 178.802 30.64 178.462 30.84C178.142 31.04 177.792 31.38 177.412 31.86C177.052 32.34 176.662 33 176.242 33.84ZM186.566 39.15L186.866 36.69C188.046 36.69 188.966 36.65 189.626 36.57C190.286 36.47 190.756 36.24 191.036 35.88C191.316 35.5 191.456 34.91 191.456 34.11C191.456 33.61 191.376 33.02 191.216 32.34C191.056 31.64 190.846 30.9 190.586 30.12C190.326 29.34 190.046 28.57 189.746 27.81L192.176 26.91C192.436 27.55 192.676 28.28 192.896 29.1C193.136 29.92 193.336 30.73 193.496 31.53C193.656 32.33 193.736 33.03 193.736 33.63C193.736 34.63 193.596 35.48 193.316 36.18C193.056 36.88 192.636 37.45 192.056 37.89C191.476 38.33 190.726 38.65 189.806 38.85C188.906 39.05 187.826 39.15 186.566 39.15ZM192.116 44.82C191.696 44.82 191.336 44.67 191.036 44.37C190.756 44.09 190.616 43.75 190.616 43.35C190.616 42.95 190.756 42.6 191.036 42.3C191.336 42 191.696 41.85 192.116 41.85C192.516 41.85 192.856 42 193.136 42.3C193.436 42.6 193.586 42.95 193.586 43.35C193.586 43.75 193.436 44.09 193.136 44.37C192.856 44.67 192.516 44.82 192.116 44.82ZM188.006 44.82C187.586 44.82 187.226 44.67 186.926 44.37C186.646 44.09 186.506 43.75 186.506 43.35C186.506 42.95 186.646 42.6 186.926 42.3C187.226 42 187.586 41.85 188.006 41.85C188.406 41.85 188.746 42 189.026 42.3C189.326 42.6 189.476 42.95 189.476 43.35C189.476 43.75 189.326 44.09 189.026 44.37C188.746 44.67 188.406 44.82 188.006 44.82ZM197.09 39L196.49 17.58H198.92L199.52 39H197.09Z" fill="white"/>
<path d="M92.56 14.36L93.344 12.328C93.7387 12.4987 94.1173 12.6267 94.48 12.712C94.8427 12.7973 95.2053 12.84 95.568 12.84C95.9413 12.84 96.2507 12.808 96.496 12.744C96.752 12.6693 96.944 12.5627 97.072 12.424C97.2 12.2853 97.264 12.12 97.264 11.928C97.264 11.7467 97.2053 11.496 97.088 11.176C96.9813 10.856 96.784 10.44 96.496 9.928C96.208 9.40533 95.7867 8.76 95.232 7.992L97.136 6.728C97.648 7.45333 98.0907 8.16267 98.464 8.856C98.8373 9.53867 99.1253 10.1787 99.328 10.776C99.5413 11.3627 99.648 11.88 99.648 12.328C99.648 12.8827 99.4987 13.368 99.2 13.784C98.912 14.1893 98.48 14.5093 97.904 14.744C97.3387 14.9787 96.64 15.096 95.808 15.096C95.4987 15.096 95.152 15.0693 94.768 15.016C94.384 14.9627 93.9947 14.8827 93.6 14.776C93.216 14.6693 92.8693 14.5307 92.56 14.36ZM104.698 15.08C103.706 15.08 102.938 14.9787 102.394 14.776C101.86 14.5733 101.487 14.2587 101.274 13.832C101.06 13.3947 100.938 12.8453 100.906 12.184L100.57 3.288H102.81L103.146 11.112C103.167 11.6027 103.22 11.9707 103.306 12.216C103.391 12.4613 103.551 12.6267 103.786 12.712C104.031 12.7973 104.388 12.84 104.858 12.84C105.263 12.84 105.551 12.9467 105.722 13.16C105.903 13.3627 105.994 13.6187 105.994 13.928C105.994 14.2587 105.882 14.536 105.658 14.76C105.434 14.9733 105.114 15.08 104.698 15.08ZM104.079 15.08L104.239 12.84C104.709 12.84 105.077 12.808 105.343 12.744C105.621 12.68 105.818 12.5627 105.935 12.392C106.053 12.2107 106.111 11.9547 106.111 11.624C106.111 11.3253 106.069 10.968 105.983 10.552C105.909 10.136 105.807 9.704 105.679 9.256C105.551 8.808 105.423 8.39733 105.295 8.024L107.503 7.416C107.631 7.77867 107.759 8.2 107.887 8.68C108.015 9.16 108.122 9.656 108.207 10.168C108.303 10.6693 108.351 11.1547 108.351 11.624C108.351 12.2107 108.277 12.7067 108.127 13.112C107.978 13.5067 107.77 13.8373 107.503 14.104C107.247 14.36 106.938 14.5627 106.575 14.712C106.223 14.8507 105.834 14.9467 105.407 15C104.981 15.0533 104.538 15.08 104.079 15.08ZM106.047 18.76C105.738 18.76 105.471 18.6533 105.247 18.44C105.034 18.2267 104.927 17.9653 104.927 17.656C104.927 17.3467 105.034 17.0747 105.247 16.84C105.471 16.616 105.738 16.504 106.047 16.504C106.357 16.504 106.618 16.616 106.831 16.84C107.055 17.0747 107.167 17.3467 107.167 17.656C107.167 17.9653 107.055 18.2267 106.831 18.44C106.618 18.6533 106.357 18.76 106.047 18.76ZM109.765 15L109.461 4.408H111.702L112.006 15H109.765ZM111.589 2.856C111.269 2.856 110.981 2.80267 110.726 2.696C110.47 2.57867 110.235 2.46667 110.021 2.36C109.808 2.25333 109.611 2.2 109.429 2.2C109.237 2.2 109.061 2.248 108.901 2.344C108.752 2.44 108.592 2.57333 108.421 2.744L107.669 2.04C107.957 1.67733 108.245 1.40533 108.533 1.224C108.832 1.04267 109.131 0.952 109.429 0.952C109.696 0.952 109.941 1.00533 110.166 1.112C110.39 1.21867 110.614 1.32533 110.838 1.432C111.072 1.53867 111.323 1.592 111.589 1.592C111.76 1.592 111.92 1.56533 112.07 1.512C112.219 1.448 112.4 1.352 112.614 1.224L113.174 2.104C112.79 2.43467 112.47 2.64267 112.214 2.728C111.968 2.81333 111.76 2.856 111.589 2.856ZM116.686 21.288C116.494 20.5413 116.328 19.8427 116.19 19.192C116.062 18.552 115.966 17.9707 115.902 17.448C115.838 16.936 115.806 16.4987 115.806 16.136C115.806 15.3893 115.928 14.7653 116.174 14.264C116.43 13.7627 116.766 13.3627 117.182 13.064C117.608 12.7547 118.072 12.536 118.574 12.408C119.075 12.2693 119.576 12.2 120.078 12.2C120.59 12.2 121.059 12.2427 121.486 12.328C121.507 11.9973 121.48 11.6987 121.406 11.432C121.342 11.1653 121.24 10.936 121.102 10.744C120.974 10.552 120.814 10.4027 120.622 10.296C120.44 10.1893 120.243 10.136 120.03 10.136C119.827 10.136 119.624 10.1893 119.422 10.296C119.219 10.392 119.027 10.536 118.846 10.728C118.675 10.92 118.51 11.1653 118.35 11.464L116.606 10.504C116.894 9.85333 117.235 9.34133 117.63 8.968C118.024 8.584 118.435 8.312 118.862 8.152C119.299 7.98133 119.726 7.896 120.142 7.896C120.782 7.896 121.331 8.03467 121.79 8.312C122.259 8.57867 122.638 8.93067 122.926 9.368C123.214 9.79467 123.427 10.2533 123.566 10.744C123.704 11.2347 123.774 11.704 123.774 12.152C123.774 12.4933 123.736 12.8347 123.662 13.176C123.598 13.5067 123.518 13.8053 123.422 14.072C123.336 14.3387 123.251 14.5467 123.166 14.696C122.579 14.536 122.024 14.4187 121.502 14.344C120.979 14.2693 120.504 14.248 120.078 14.28C119.662 14.3013 119.299 14.3867 118.99 14.536C118.691 14.6747 118.456 14.8827 118.286 15.16C118.126 15.4373 118.046 15.7893 118.046 16.216C118.046 16.6107 118.078 17.0587 118.142 17.56C118.206 18.072 118.296 18.6 118.414 19.144C118.531 19.688 118.664 20.2267 118.814 20.76L116.686 21.288ZM134.571 15.08C133.825 15.08 133.206 15.0267 132.715 14.92C132.235 14.8027 131.857 14.6267 131.579 14.392C131.302 14.1467 131.105 13.8427 130.987 13.48C130.87 13.1173 130.801 12.6853 130.779 12.184L130.443 3.288H132.683L133.019 11.112C133.041 11.6027 133.094 11.9707 133.179 12.216C133.265 12.4613 133.425 12.6267 133.659 12.712C133.905 12.7973 134.262 12.84 134.731 12.84C135.137 12.84 135.425 12.9467 135.595 13.16C135.777 13.3627 135.867 13.6187 135.867 13.928C135.867 14.2587 135.755 14.536 135.531 14.76C135.307 14.9733 134.987 15.08 134.571 15.08ZM125.963 15.08C125.675 15.08 125.382 15.0533 125.083 15C124.795 14.9573 124.593 14.9253 124.475 14.904L124.779 12.584C125.515 12.68 126.23 12.7013 126.923 12.648C127.627 12.584 128.257 12.4133 128.811 12.136C129.377 11.848 129.825 11.432 130.155 10.888C130.486 10.3333 130.651 9.61867 130.651 8.744L131.515 11.256C131.387 11.9813 131.169 12.584 130.859 13.064C130.561 13.5333 130.203 13.9067 129.787 14.184C129.382 14.4507 128.95 14.648 128.491 14.776C128.033 14.904 127.585 14.984 127.147 15.016C126.71 15.0587 126.315 15.08 125.963 15.08ZM129.435 12.888C129.275 12.5787 129.046 12.216 128.747 11.8C128.449 11.3733 128.081 10.904 127.643 10.392C127.217 9.86933 126.726 9.32 126.171 8.744C125.617 8.15733 125.003 7.55467 124.331 6.936L125.723 5.416C126.715 6.35467 127.521 7.144 128.139 7.784C128.758 8.424 129.249 8.96267 129.611 9.4C129.985 9.82667 130.267 10.1947 130.459 10.504C130.662 10.8133 130.833 11.112 130.971 11.4L129.435 12.888ZM133.942 15.08L134.102 12.84C134.454 12.84 134.742 12.8133 134.966 12.76C135.19 12.696 135.371 12.5627 135.51 12.36C135.659 12.1467 135.787 11.832 135.894 11.416C136.011 10.9893 136.139 10.4133 136.278 9.688L138.358 10.072C138.326 10.232 138.289 10.4187 138.246 10.632C138.203 10.8453 138.166 11.064 138.134 11.288C138.102 11.5013 138.086 11.6933 138.086 11.864C138.086 12.1627 138.182 12.4027 138.374 12.584C138.566 12.7547 138.929 12.84 139.462 12.84C139.729 12.84 139.958 12.8133 140.15 12.76C140.353 12.696 140.523 12.5627 140.662 12.36C140.811 12.1467 140.939 11.8213 141.046 11.384C141.163 10.936 141.275 10.3333 141.382 9.576L143.494 9.912C143.451 10.1573 143.409 10.4187 143.366 10.696C143.323 10.9733 143.286 11.2293 143.254 11.464C143.222 11.6987 143.206 11.8907 143.206 12.04C143.206 12.1787 143.243 12.312 143.318 12.44C143.403 12.5573 143.553 12.6533 143.766 12.728C143.99 12.8027 144.305 12.84 144.71 12.84C144.998 12.84 145.243 12.8027 145.446 12.728C145.659 12.6533 145.819 12.5307 145.926 12.36C146.043 12.1893 146.102 11.9653 146.102 11.688C146.102 11.2933 146.011 10.776 145.83 10.136C145.649 9.496 145.435 8.824 145.19 8.12L147.446 7.448C147.617 7.90667 147.766 8.39733 147.894 8.92C148.033 9.432 148.139 9.93333 148.214 10.424C148.299 10.904 148.342 11.3253 148.342 11.688C148.342 12.232 148.257 12.7173 148.086 13.144C147.915 13.56 147.675 13.912 147.366 14.2C147.057 14.488 146.689 14.7067 146.262 14.856C145.835 15.0053 145.366 15.08 144.854 15.08C144.235 15.08 143.729 15.0213 143.334 14.904C142.939 14.776 142.635 14.568 142.422 14.28C142.219 13.9813 142.086 13.576 142.022 13.064H142.566C142.342 13.6933 142.091 14.152 141.814 14.44C141.537 14.7173 141.206 14.8933 140.822 14.968C140.449 15.0427 139.979 15.08 139.414 15.08C139.062 15.08 138.699 15.0427 138.326 14.968C137.963 14.8827 137.638 14.6907 137.35 14.392C137.062 14.0933 136.849 13.6293 136.71 13L137.574 12.968C137.35 13.5973 137.057 14.0613 136.694 14.36C136.342 14.6587 135.937 14.856 135.478 14.952C135.019 15.0373 134.507 15.08 133.942 15.08ZM149.785 15L149.449 3.288H151.689L152.025 15H149.785Z" fill="white"/>
<path fill-rule="evenodd" clip-rule="evenodd" d="M53.4446 3.33968C53.5436 2.87889 53.951 2.5498 54.4223 2.5498H82.9823C83.2836 2.5498 83.5688 2.68565 83.7587 2.91959C83.9486 3.15352 84.0229 3.4606 83.9609 3.75546L81.9309 13.4155C81.8336 13.8784 81.4253 14.2098 80.9523 14.2098H61.5439L60.8762 17.588C61.4852 17.3688 62.1165 17.1745 62.7696 17.0049C64.1852 16.6019 65.8178 16.4098 67.6523 16.4098C70.5389 16.4098 73.0156 16.8176 75.0434 17.6795C77.0232 18.5209 78.6491 19.6522 79.885 21.0914C81.1413 22.5006 82.0297 24.0953 82.539 25.8683C83.0793 27.5439 83.3523 29.2289 83.3523 30.9198C83.3523 33.5841 82.7842 36.0689 81.6406 38.3592C80.5469 40.6429 78.9599 42.6215 76.8961 44.2933C74.8681 45.974 72.393 47.2652 69.4942 48.1832C66.5799 49.106 63.3257 49.5598 59.7423 49.5598C58.3493 49.5598 56.9995 49.4642 55.6936 49.2717C54.3651 49.1227 53.0619 48.8268 51.7852 48.3848C51.7703 48.3796 51.7555 48.3741 51.7409 48.3683C50.5147 47.8778 49.2738 47.2442 48.0182 46.4715L48.0032 46.4621C46.7689 45.6721 45.5043 44.6478 44.2086 43.4001C43.9608 43.1615 43.8531 42.8123 43.9233 42.4756L45.9534 32.7456C46.0501 32.282 46.4587 31.9498 46.9323 31.9498H57.9923C58.2805 31.9498 58.5548 32.0742 58.7447 32.2911C58.9345 32.508 59.0216 32.7962 58.9835 33.082C58.8914 33.7728 58.8232 34.3649 58.7782 34.8603C58.7359 35.3254 58.7123 36.1035 58.7123 37.2198C58.7123 39.5226 59.0219 40.9355 59.4725 41.6635C59.9034 42.3594 60.4507 42.6598 61.2123 42.6598C62.0902 42.6598 62.8352 42.3399 63.4963 41.6421C64.2347 40.8627 64.8464 39.8819 65.3194 38.6796C65.8047 37.3988 66.1604 36.0231 66.3836 34.55C66.6105 33.0524 66.7223 31.6562 66.7223 30.3598C66.7223 29.4764 66.656 28.645 66.5259 27.8642L66.5245 27.8558C66.397 27.0481 66.1896 26.3804 65.9178 25.837C65.6622 25.3257 65.3306 24.9505 64.9276 24.6819C64.9122 24.6716 64.8971 24.6609 64.8823 24.6498C64.5279 24.384 64.0504 24.2198 63.3823 24.2198C62.7501 24.2198 62.0286 24.4126 61.2042 24.866C60.4967 25.2552 59.6992 26.0837 58.8521 27.5103C58.672 27.8138 58.3452 27.9998 57.9923 27.9998H49.3823C49.0802 27.9998 48.7943 27.8632 48.6044 27.6282C48.4146 27.3933 48.3411 27.085 48.4046 26.7897L53.4446 3.33968ZM55.2302 4.5498L50.62 25.9998H57.4344C58.28 24.6823 59.2057 23.6826 60.2404 23.1136C61.2826 22.5404 62.3345 22.2198 63.3823 22.2198C64.3842 22.2198 65.2986 22.4706 66.0597 23.033C66.7657 23.5096 67.3133 24.1557 67.7067 24.9426C68.0878 25.7047 68.3468 26.5756 68.4994 27.5396C68.6488 28.4376 68.7223 29.3781 68.7223 30.3598C68.7223 31.7701 68.6007 33.2673 68.361 34.8496C68.1178 36.4543 67.7275 37.9701 67.1873 39.3945L67.1831 39.4055C66.6297 40.814 65.8887 42.0248 64.9482 43.0176C63.9293 44.0931 62.6677 44.6598 61.2123 44.6598C59.7339 44.6598 58.5545 43.9802 57.772 42.7162C57.0093 41.4841 56.7123 39.5837 56.7123 37.2198C56.7123 36.0961 56.7353 35.2409 56.7864 34.6793C56.807 34.4525 56.8319 34.2093 56.861 33.9498H47.7452L45.9952 42.3375C47.0709 43.3378 48.0974 44.147 49.0741 44.7729C50.2346 45.4866 51.3638 46.0617 52.4617 46.5025C53.5985 46.8942 54.7552 47.1551 55.9327 47.2859C55.9394 47.2867 55.9461 47.2875 55.9528 47.2884C55.9581 47.2891 55.9635 47.2898 55.9688 47.2906C57.1774 47.4697 58.435 47.5598 59.7423 47.5598C63.1589 47.5598 66.2047 47.1269 68.8904 46.2765C71.5894 45.4218 73.8262 44.2409 75.6239 42.75L75.633 42.7425C77.4845 41.2437 78.8814 39.4929 79.8401 37.4883L79.8478 37.4726C80.8483 35.4717 81.3523 33.2925 81.3523 30.9198C81.3523 29.4429 81.1136 27.96 80.6308 26.4676C80.6273 26.4567 80.6239 26.4456 80.6208 26.4345C80.1968 24.9508 79.4558 23.6136 78.3863 22.4158L78.373 22.4006C77.3697 21.2301 76.0112 20.2639 74.2611 19.5201C72.5557 18.7953 70.3657 18.4098 67.6523 18.4098C65.9453 18.4098 64.5019 18.5899 63.307 18.9313C63.2991 18.9336 63.2912 18.9357 63.2832 18.9378C62.0796 19.2498 60.974 19.6488 59.9637 20.1319C59.6224 20.2952 59.2181 20.2518 58.9192 20.0198C58.6203 19.7879 58.4779 19.4071 58.5513 19.0359L59.7413 13.0159C59.8339 12.5474 60.2448 12.2098 60.7223 12.2098H80.1406L81.7503 4.5498H55.2302Z" fill="white"/>
<path fill-rule="evenodd" clip-rule="evenodd" d="M34.7751 2.93016C34.9648 2.68995 35.254 2.5498 35.56 2.5498H46.27C46.572 2.5498 46.8578 2.68626 47.0476 2.92109C47.2375 3.15591 47.3111 3.46395 47.2478 3.75923L37.7278 48.2092C37.6291 48.6704 37.2216 48.9998 36.75 48.9998H21.63C21.3282 48.9998 21.0426 48.8635 20.8528 48.629C20.6629 48.3945 20.5891 48.0867 20.6519 47.7916L27.3247 16.4498H21C20.6964 16.4498 20.4093 16.3119 20.2195 16.0749C20.0297 15.8379 19.9578 15.5276 20.0242 15.2313L21.0742 10.5413C21.1648 10.1366 21.4959 9.82977 21.9064 9.77018C24.6898 9.36613 27.1845 8.53879 29.4014 7.2973L29.4087 7.2932C31.6945 6.03825 33.4731 4.57944 34.7751 2.93016ZM36.0348 4.5498C34.5755 6.2835 32.6806 7.77805 30.375 9.04433C28.1134 10.3102 25.6113 11.1735 22.8774 11.6414L22.2486 14.4498H28.56C28.8618 14.4498 29.1474 14.5861 29.3373 14.8206C29.5271 15.0552 29.6009 15.3629 29.5381 15.658L22.8653 46.9998H35.9415L45.0332 4.5498H36.0348Z" fill="white"/>
</svg>
