<svg width="166" height="34" viewBox="0 0 166 34" fill="none" xmlns="http://www.w3.org/2000/svg">
<path d="M11.2685 27.2769V28.5794H1.07082V27.2769H11.2685ZM1.53153 10.5188V28.5794H0V10.5188H1.53153ZM9.9985 18.6188V19.9212H1.07082V18.6188H9.9985ZM11.2063 10.5188V11.8336H1.07082V10.5188H11.2063Z" fill="#22295D"/>
<path d="M14.5567 17.9365V28.5794H13.0625V15.158H14.4945L14.5567 17.9365ZM14.2828 21.0376L13.5606 20.6655C13.6104 19.8716 13.7598 19.1273 14.0089 18.4327C14.2662 17.7381 14.6231 17.1261 15.0797 16.5969C15.5362 16.0676 16.0841 15.6541 16.7233 15.3564C17.3624 15.0587 18.0888 14.9099 18.9023 14.9099C19.558 14.9099 20.1516 15.0009 20.6828 15.1828C21.2224 15.3564 21.6789 15.6335 22.0525 16.0139C22.4343 16.386 22.729 16.8739 22.9365 17.4776C23.1441 18.0812 23.2478 18.8048 23.2478 19.6483V28.5794H21.7661V19.6979C21.7661 18.8048 21.625 18.106 21.3428 17.6016C21.0688 17.0972 20.6828 16.7374 20.1848 16.5224C19.695 16.3074 19.1264 16.1999 18.4789 16.1999C17.7152 16.1999 17.0678 16.357 16.5365 16.6713C16.0135 16.9773 15.586 17.3783 15.254 17.8745C14.9303 18.3624 14.6895 18.8875 14.5318 19.4498C14.3741 20.0039 14.2911 20.5331 14.2828 21.0376ZM23.2354 19.8716L22.2393 19.8964C22.2808 19.2431 22.4302 18.6188 22.6875 18.0233C22.9531 17.4279 23.3142 16.8987 23.7708 16.4356C24.2273 15.9642 24.771 15.5921 25.4019 15.3192C26.0411 15.0463 26.7591 14.9099 27.556 14.9099C28.2533 14.9099 28.8759 15.005 29.4237 15.1952C29.9716 15.3771 30.4323 15.6707 30.8058 16.0759C31.1877 16.4728 31.4782 16.9814 31.6774 17.6016C31.8767 18.2218 31.9763 18.9661 31.9763 19.8344V28.5794H30.4821V19.822C30.4821 18.871 30.341 18.135 30.0588 17.614C29.7848 17.0848 29.403 16.7168 28.9132 16.51C28.4235 16.3033 27.8507 16.1999 27.1949 16.1999C26.5475 16.2082 25.9788 16.3281 25.4891 16.5596C24.9993 16.7829 24.5884 17.0806 24.2564 17.4528C23.9327 17.8166 23.6836 18.2094 23.5093 18.6312C23.3433 19.0529 23.252 19.4664 23.2354 19.8716Z" fill="#22295D"/>
<path d="M39.9462 28.8274C39.0663 28.8274 38.2569 28.6662 37.5182 28.3437C36.7877 28.0212 36.1485 27.5663 35.6006 26.9792C35.0611 26.3921 34.6419 25.6974 34.343 24.8953C34.0525 24.0849 33.9072 23.2 33.9072 22.2408V21.7074C33.9072 20.6737 34.0608 19.7393 34.3679 18.904C34.6751 18.0688 35.0984 17.3535 35.638 16.7581C36.1776 16.1627 36.7918 15.7079 37.4808 15.3937C38.1781 15.0711 38.9086 14.9099 39.6723 14.9099C40.5273 14.9099 41.2868 15.0629 41.9509 15.3688C42.6149 15.6665 43.1711 16.0924 43.6194 16.6465C44.0759 17.1923 44.4204 17.8414 44.6528 18.5939C44.8853 19.3382 45.0015 20.161 45.0015 21.0624V21.9679H34.8037V20.7027H43.5198V20.529C43.5031 19.7765 43.3496 19.0736 43.059 18.4203C42.7768 17.7587 42.3535 17.2212 41.789 16.8077C41.2245 16.3943 40.519 16.1875 39.6723 16.1875C39.0414 16.1875 38.4603 16.3198 37.9291 16.5845C37.4061 16.8491 36.9537 17.2295 36.5718 17.7256C36.1983 18.2135 35.9078 18.7965 35.7002 19.4746C35.501 20.1445 35.4014 20.8887 35.4014 21.7074V22.2408C35.4014 22.985 35.5093 23.6797 35.7252 24.3247C35.9493 24.9614 36.2647 25.5238 36.6715 26.0117C37.0865 26.4996 37.5763 26.88 38.1407 27.1529C38.7052 27.4258 39.3278 27.5622 40.0084 27.5622C40.8053 27.5622 41.5109 27.4175 42.1252 27.1281C42.7395 26.8304 43.2915 26.3631 43.7812 25.7264L44.7151 26.4458C44.4246 26.8758 44.0593 27.2728 43.6194 27.6366C43.1877 28.0005 42.6689 28.2899 42.0629 28.5049C41.457 28.7199 40.7514 28.8274 39.9462 28.8274Z" fill="#22295D"/>
<path d="M48.4017 17.3783V28.5794H46.92V15.158H48.3643L48.4017 17.3783ZM53.1706 15.0587L53.1332 16.4232C52.9672 16.3984 52.8054 16.3777 52.6476 16.3612C52.4899 16.3446 52.3198 16.3364 52.1371 16.3364C51.4897 16.3364 50.921 16.4563 50.4313 16.6961C49.9498 16.9276 49.5431 17.2543 49.211 17.676C48.879 18.0895 48.6258 18.5774 48.4515 19.1397C48.2772 19.6938 48.1776 20.2892 48.1527 20.9259L47.6048 21.1368C47.6048 20.2602 47.6961 19.4457 47.8787 18.6932C48.0614 17.9407 48.3394 17.2832 48.713 16.7209C49.0948 16.1503 49.5721 15.7079 50.1449 15.3937C50.726 15.0711 51.4066 14.9099 52.1869 14.9099C52.3779 14.9099 52.5646 14.9264 52.7473 14.9595C52.9382 14.9843 53.0793 15.0174 53.1706 15.0587Z" fill="#22295D"/>
<path d="M63.1078 15.158H64.49V28.3437C64.49 29.5097 64.2658 30.5103 63.8176 31.3455C63.3776 32.1807 62.7509 32.8216 61.9374 33.2681C61.1322 33.7147 60.1818 33.938 59.086 33.938C58.5299 33.938 57.9571 33.8511 57.3677 33.6775C56.7867 33.5121 56.2347 33.2557 55.7117 32.9084C55.197 32.5694 54.7571 32.1476 54.3918 31.6432L55.2261 30.7377C55.7739 31.3992 56.3592 31.883 56.9817 32.189C57.6043 32.5032 58.2767 32.6603 58.9989 32.6603C59.8539 32.6603 60.5761 32.4908 61.1654 32.1518C61.7631 31.8127 62.2155 31.3248 62.5226 30.6881C62.8381 30.0513 62.9958 29.2864 62.9958 28.3933V18.1102L63.1078 15.158ZM53.6448 22.0051V21.7446C53.6448 20.7027 53.761 19.7641 53.9934 18.9289C54.2341 18.0854 54.5786 17.3659 55.0269 16.7705C55.4751 16.1668 56.0188 15.7079 56.658 15.3937C57.3055 15.0711 58.036 14.9099 58.8495 14.9099C59.6297 14.9099 60.3229 15.0381 60.9288 15.2944C61.5348 15.5508 62.0578 15.9188 62.4977 16.3984C62.9377 16.878 63.2905 17.4486 63.5561 18.1102C63.83 18.7717 64.0292 19.5077 64.1538 20.3181V23.6301C64.0542 24.3909 63.8715 25.0896 63.6059 25.7264C63.3403 26.3549 62.9875 26.9048 62.5475 27.3761C62.1076 27.8392 61.5763 28.199 60.9537 28.4553C60.3395 28.7034 59.6297 28.8274 58.8246 28.8274C58.0194 28.8274 57.2972 28.662 56.658 28.3313C56.0188 28.0005 55.4751 27.5333 55.0269 26.9296C54.5786 26.3176 54.2341 25.5941 53.9934 24.7588C53.761 23.9236 53.6448 23.0057 53.6448 22.0051ZM55.1389 21.7446V22.0051C55.1389 22.7907 55.2178 23.5184 55.3755 24.1883C55.5332 24.8581 55.7739 25.4411 56.0977 25.9372C56.4214 26.4334 56.8323 26.8221 57.3304 27.1032C57.8284 27.3844 58.4137 27.525 59.086 27.525C59.941 27.525 60.6591 27.3637 61.2401 27.0412C61.8212 26.7104 62.2819 26.2763 62.6222 25.7388C62.9626 25.193 63.2116 24.5976 63.3693 23.9526V20.0949C63.278 19.6566 63.1369 19.21 62.946 18.7552C62.7634 18.3004 62.506 17.8828 62.174 17.5024C61.8502 17.1137 61.4352 16.8036 60.9288 16.5721C60.4308 16.3322 59.8248 16.2123 59.1109 16.2123C58.4303 16.2123 57.8367 16.3529 57.3304 16.6341C56.8323 16.9152 56.4214 17.308 56.0977 17.8125C55.7739 18.3086 55.5332 18.8916 55.3755 19.5615C55.2178 20.2313 55.1389 20.959 55.1389 21.7446Z" fill="#22295D"/>
<path d="M72.5719 28.8274C71.692 28.8274 70.8827 28.6662 70.1439 28.3437C69.4134 28.0212 68.7742 27.5663 68.2264 26.9792C67.6868 26.3921 67.2676 25.6974 66.9688 24.8953C66.6783 24.0849 66.533 23.2 66.533 22.2408V21.7074C66.533 20.6737 66.6866 19.7393 66.9937 18.904C67.3008 18.0688 67.7242 17.3535 68.2637 16.7581C68.8033 16.1627 69.4176 15.7079 70.1065 15.3937C70.8038 15.0711 71.5343 14.9099 72.298 14.9099C73.153 14.9099 73.9125 15.0629 74.5766 15.3688C75.2407 15.6665 75.7968 16.0924 76.2451 16.6465C76.7017 17.1923 77.0461 17.8414 77.2786 18.5939C77.511 19.3382 77.6272 20.161 77.6272 21.0624V21.9679H67.4295V20.7027H76.1455V20.529C76.1289 19.7765 75.9753 19.0736 75.6848 18.4203C75.4026 17.7587 74.9792 17.2212 74.4147 16.8077C73.8503 16.3943 73.1447 16.1875 72.298 16.1875C71.6671 16.1875 71.0861 16.3198 70.5548 16.5845C70.0318 16.8491 69.5794 17.2295 69.1976 17.7256C68.824 18.2135 68.5335 18.7965 68.326 19.4746C68.1268 20.1445 68.0272 20.8887 68.0272 21.7074V22.2408C68.0272 22.985 68.1351 23.6797 68.3509 24.3247C68.575 24.9614 68.8905 25.5238 69.2972 26.0117C69.7122 26.4996 70.202 26.88 70.7665 27.1529C71.3309 27.4258 71.9535 27.5622 72.6342 27.5622C73.4311 27.5622 74.1367 27.4175 74.7509 27.1281C75.3652 26.8304 75.9172 26.3631 76.407 25.7264L77.3408 26.4458C77.0503 26.8758 76.6851 27.2728 76.2451 27.6366C75.8135 28.0005 75.2946 28.2899 74.6887 28.5049C74.0827 28.7199 73.3771 28.8274 72.5719 28.8274Z" fill="#22295D"/>
<path d="M81.0274 18.0233V28.5794H79.5457V15.158H80.9652L81.0274 18.0233ZM80.6913 21.0376L80.0313 20.6655C80.0811 19.8716 80.243 19.1273 80.5169 18.4327C80.7909 17.7381 81.1603 17.1261 81.6251 16.5969C82.0983 16.0676 82.6503 15.6541 83.2812 15.3564C83.9203 15.0587 84.6259 14.9099 85.3979 14.9099C86.0703 14.9099 86.6721 15.0009 87.2034 15.1828C87.7346 15.3647 88.187 15.6541 88.5606 16.0511C88.9341 16.448 89.2163 16.9566 89.4073 17.5768C89.6065 18.197 89.7061 18.9537 89.7061 19.8468V28.5794H88.2119V19.8344C88.2119 18.9082 88.0833 18.1846 87.8259 17.6636C87.5686 17.1344 87.2034 16.7581 86.7302 16.5348C86.257 16.3116 85.6967 16.1999 85.0493 16.1999C84.3354 16.1999 83.7087 16.357 83.1691 16.6713C82.6378 16.9773 82.1896 17.3783 81.8243 17.8745C81.4674 18.3624 81.1935 18.8875 81.0025 19.4498C80.8116 20.0039 80.7079 20.5331 80.6913 21.0376Z" fill="#22295D"/>
<path d="M97.5141 27.5498C98.145 27.5498 98.7344 27.434 99.2822 27.2025C99.8384 26.9627 100.295 26.6112 100.652 26.1481C101.017 25.6768 101.225 25.102 101.274 24.4239H102.694C102.652 25.2757 102.391 26.0365 101.909 26.7063C101.436 27.3679 100.814 27.8888 100.042 28.2692C99.2781 28.6414 98.4355 28.8274 97.5141 28.8274C96.5761 28.8274 95.746 28.6579 95.0239 28.3189C94.31 27.9798 93.7123 27.5085 93.2308 26.9048C92.7494 26.2928 92.3842 25.5817 92.1351 24.7713C91.8944 23.9526 91.774 23.0719 91.774 22.1291V21.6082C91.774 20.6655 91.8944 19.7889 92.1351 18.9785C92.3842 18.1598 92.7494 17.4486 93.2308 16.8449C93.7123 16.233 94.31 15.7575 95.0239 15.4185C95.7377 15.0794 96.5637 14.9099 97.5017 14.9099C98.4646 14.9099 99.3279 15.1042 100.092 15.4929C100.864 15.8816 101.478 16.4315 101.934 17.1426C102.399 17.8538 102.652 18.6973 102.694 19.6731H101.274C101.233 18.9537 101.042 18.3335 100.702 17.8125C100.361 17.2915 99.9131 16.8904 99.357 16.6093C98.8008 16.3281 98.1824 16.1875 97.5017 16.1875C96.738 16.1875 96.0864 16.3364 95.5468 16.6341C95.0073 16.9235 94.5673 17.3246 94.227 17.8373C93.8949 18.3417 93.65 18.9206 93.4923 19.5739C93.3346 20.2189 93.2558 20.897 93.2558 21.6082V22.1291C93.2558 22.8486 93.3305 23.535 93.4799 24.1883C93.6376 24.8333 93.8825 25.408 94.2145 25.9124C94.5549 26.4169 94.9948 26.8179 95.5344 27.1157C96.0822 27.4051 96.7422 27.5498 97.5141 27.5498Z" fill="#22295D"/>
<path d="M108.672 27.2397L112.868 15.158H114.474L108.771 30.7377C108.655 31.0437 108.506 31.3827 108.323 31.7548C108.149 32.127 107.916 32.4825 107.626 32.8216C107.343 33.1689 106.987 33.4501 106.555 33.6651C106.132 33.8884 105.613 34 104.998 34C104.841 34 104.637 33.9793 104.388 33.938C104.148 33.9049 103.973 33.8718 103.865 33.8387L103.853 32.5859C103.944 32.6107 104.077 32.6314 104.251 32.6479C104.426 32.6645 104.546 32.6727 104.612 32.6727C105.152 32.6727 105.604 32.5818 105.97 32.3999C106.343 32.2179 106.654 31.945 106.904 31.5812C107.153 31.2256 107.373 30.779 107.563 30.2415L108.672 27.2397ZM104.749 15.158L109.045 26.6815L109.444 28.232L108.36 28.8398L103.131 15.158H104.749Z" fill="#22295D"/>
<path d="M62.8623 0.496169V9.52645H61.1502V0.496169H62.8623Z" fill="#22295D"/>
<path d="M67.7811 7.69062C67.7811 7.55004 67.7438 7.42393 67.6691 7.31229C67.5943 7.20066 67.4532 7.09936 67.2457 7.00839C67.0423 6.91329 66.7435 6.82439 66.3492 6.7417C66.0006 6.66727 65.6789 6.57424 65.3842 6.4626C65.0895 6.35097 64.8363 6.21659 64.6247 6.05947C64.413 5.89821 64.247 5.71008 64.1266 5.49507C64.0104 5.27593 63.9523 5.02371 63.9523 4.73842C63.9523 4.46139 64.0125 4.2009 64.1328 3.95695C64.2532 3.70887 64.4275 3.49179 64.6558 3.30573C64.8841 3.11553 65.1622 2.96668 65.4901 2.85918C65.8179 2.74754 66.1873 2.69172 66.5982 2.69172C67.171 2.69172 67.6628 2.78475 68.0737 2.97081C68.4888 3.15688 68.8063 3.41323 69.0263 3.73988C69.2462 4.06239 69.3562 4.42624 69.3562 4.83145H67.7126C67.7126 4.65365 67.6711 4.4924 67.5881 4.34768C67.5093 4.20297 67.3868 4.08719 67.2208 4.00036C67.0548 3.9094 66.8452 3.86392 66.592 3.86392C66.3637 3.86392 66.1707 3.90113 66.013 3.97556C65.8594 4.04998 65.7432 4.14715 65.6644 4.26706C65.5855 4.38696 65.5461 4.51928 65.5461 4.66399C65.5461 4.77149 65.5668 4.86866 65.6083 4.95549C65.654 5.03819 65.7266 5.11468 65.8262 5.18497C65.9259 5.25526 66.0607 5.31935 66.2309 5.37723C66.4052 5.43512 66.619 5.49094 66.8722 5.54469C67.3744 5.64393 67.8122 5.77624 68.1858 5.94163C68.5635 6.10288 68.8582 6.31789 69.0698 6.58665C69.2815 6.85541 69.3873 7.19859 69.3873 7.6162C69.3873 7.9139 69.323 8.18679 69.1944 8.43488C69.0657 8.67883 68.8789 8.89177 68.634 9.0737C68.3892 9.25562 68.0965 9.39827 67.7562 9.50164C67.4159 9.60088 67.032 9.65049 66.6045 9.65049C65.986 9.65049 65.4631 9.54092 65.0356 9.32178C64.6081 9.0985 64.2843 8.81734 64.0644 8.47829C63.8444 8.13511 63.7344 7.77952 63.7344 7.41153H65.3095C65.322 7.67202 65.3925 7.88082 65.5212 8.03794C65.6498 8.19506 65.8117 8.30877 66.0068 8.37906C66.206 8.44521 66.4156 8.47829 66.6356 8.47829C66.8846 8.47829 67.0942 8.44521 67.2644 8.37906C67.4345 8.30877 67.5632 8.21574 67.6504 8.09996C67.7375 7.98006 67.7811 7.84361 67.7811 7.69062Z" fill="#22295D"/>
<path d="M71.8719 0V9.52645H70.2221V0H71.8719Z" fill="#22295D"/>
<path d="M76.6413 8.09996V5.00511C76.6413 4.7777 76.6019 4.5813 76.523 4.41591C76.4442 4.25052 76.3238 4.12234 76.1619 4.03138C76.0001 3.94041 75.7946 3.89493 75.5456 3.89493C75.3256 3.89493 75.1326 3.93214 74.9666 4.00657C74.8047 4.08099 74.6802 4.18643 74.593 4.32287C74.5059 4.45519 74.4623 4.60817 74.4623 4.78183H72.8125C72.8125 4.5048 72.8789 4.24225 73.0117 3.99416C73.1445 3.74194 73.3334 3.51867 73.5783 3.32433C73.8273 3.12587 74.124 2.97081 74.4685 2.85918C74.8172 2.74754 75.2073 2.69172 75.639 2.69172C76.1495 2.69172 76.604 2.77855 77.0024 2.95221C77.405 3.12173 77.7204 3.37809 77.9487 3.72127C78.1811 4.06445 78.2973 4.49653 78.2973 5.01751V7.94491C78.2973 8.27982 78.3181 8.56719 78.3596 8.807C78.4053 9.04268 78.4717 9.24735 78.5588 9.42101V9.52645H76.8841C76.8052 9.35693 76.7451 9.14192 76.7036 8.88143C76.6621 8.61681 76.6413 8.35632 76.6413 8.09996ZM76.8717 5.43926L76.8841 6.41299H75.8444C75.5871 6.41299 75.3609 6.43986 75.1658 6.49362C74.9707 6.54323 74.8109 6.61766 74.6864 6.71689C74.5619 6.81199 74.4685 6.92776 74.4063 7.06421C74.344 7.19652 74.3129 7.34744 74.3129 7.51696C74.3129 7.68235 74.3502 7.83121 74.4249 7.96352C74.5038 8.09583 74.6159 8.20126 74.7611 8.27982C74.9106 8.35425 75.0849 8.39146 75.2841 8.39146C75.5746 8.39146 75.8278 8.33358 76.0436 8.2178C76.2595 8.0979 76.4276 7.95318 76.5479 7.78366C76.6683 7.61413 76.7326 7.45288 76.7409 7.29989L77.2141 8.00693C77.156 8.17646 77.0688 8.35632 76.9526 8.54652C76.8364 8.73671 76.687 8.91451 76.5043 9.0799C76.3217 9.24529 76.1017 9.38173 75.8444 9.48924C75.5871 9.59674 75.2882 9.65049 74.9479 9.65049C74.5121 9.65049 74.122 9.56366 73.7775 9.39C73.433 9.21634 73.1611 8.9786 72.9619 8.67676C72.7627 8.37492 72.6631 8.03174 72.6631 7.64721C72.6631 7.29162 72.7295 6.97738 72.8623 6.70449C72.9951 6.43159 73.1923 6.20212 73.4537 6.01605C73.7152 5.82585 74.039 5.68321 74.4249 5.58811C74.8151 5.48887 75.2613 5.43926 75.7635 5.43926H76.8717Z" fill="#22295D"/>
<path d="M80.9064 4.19263V9.52645H79.2628V2.81576H80.813L80.9064 4.19263ZM80.6636 5.92922H80.1593C80.1593 5.462 80.2154 5.03198 80.3274 4.63918C80.4436 4.24638 80.6138 3.90527 80.8379 3.61583C81.0621 3.32227 81.3381 3.09486 81.666 2.9336C81.998 2.77235 82.3819 2.69172 82.8177 2.69172C83.1207 2.69172 83.3988 2.7372 83.652 2.82816C83.9051 2.91499 84.123 3.05351 84.3057 3.24371C84.4924 3.42977 84.6356 3.67372 84.7352 3.97556C84.8348 4.27326 84.8847 4.63091 84.8847 5.04852V9.52645H83.2411V5.21598C83.2411 4.90174 83.1954 4.65572 83.1041 4.47793C83.0169 4.30013 82.8903 4.17609 82.7243 4.1058C82.5583 4.03138 82.3591 3.99416 82.1267 3.99416C81.8693 3.99416 81.6473 4.04585 81.4605 4.14922C81.2779 4.24845 81.1264 4.38696 81.006 4.56476C80.8898 4.74255 80.8027 4.94722 80.7446 5.17877C80.6906 5.41031 80.6636 5.66046 80.6636 5.92922ZM84.7601 5.62532L84.0815 5.74936C84.0857 5.32762 84.1438 4.93275 84.2559 4.56476C84.3679 4.19263 84.5319 3.86805 84.7477 3.59103C84.9677 3.30986 85.2395 3.09072 85.5633 2.9336C85.8911 2.77235 86.2688 2.69172 86.6963 2.69172C87.0284 2.69172 87.3272 2.73927 87.5928 2.83437C87.8626 2.92533 88.093 3.07211 88.2839 3.27472C88.4748 3.47318 88.6201 3.73161 88.7197 4.04998C88.8235 4.36836 88.8753 4.75702 88.8753 5.21598V9.52645H87.2193V5.20978C87.2193 4.88313 87.1736 4.63298 87.0823 4.45932C86.9952 4.28566 86.8686 4.16575 86.7026 4.0996C86.5365 4.02931 86.3415 3.99416 86.1173 3.99416C85.8891 3.99416 85.6898 4.03758 85.5197 4.12441C85.3537 4.2071 85.2125 4.32287 85.0963 4.47173C84.9843 4.62058 84.8992 4.79424 84.8411 4.9927C84.7871 5.18704 84.7601 5.39791 84.7601 5.62532Z" fill="#22295D"/>
<path d="M93.5513 8.09996V5.00511C93.5513 4.7777 93.5119 4.5813 93.4331 4.41591C93.3542 4.25052 93.2338 4.12234 93.072 4.03138C92.9101 3.94041 92.7046 3.89493 92.4556 3.89493C92.2356 3.89493 92.0426 3.93214 91.8766 4.00657C91.7148 4.08099 91.5902 4.18643 91.5031 4.32287C91.4159 4.45519 91.3723 4.60817 91.3723 4.78183H89.7225C89.7225 4.5048 89.7889 4.24225 89.9218 3.99416C90.0546 3.74194 90.2434 3.51867 90.4883 3.32433C90.7373 3.12587 91.0341 2.97081 91.3786 2.85918C91.7272 2.74754 92.1174 2.69172 92.549 2.69172C93.0595 2.69172 93.514 2.77855 93.9124 2.95221C94.315 3.12173 94.6305 3.37809 94.8587 3.72127C95.0912 4.06445 95.2074 4.49653 95.2074 5.01751V7.94491C95.2074 8.27982 95.2281 8.56719 95.2696 8.807C95.3153 9.04268 95.3817 9.24735 95.4689 9.42101V9.52645H93.7942C93.7153 9.35693 93.6551 9.14192 93.6136 8.88143C93.5721 8.61681 93.5513 8.35632 93.5513 8.09996ZM93.7817 5.43926L93.7942 6.41299H92.7545C92.4971 6.41299 92.2709 6.43986 92.0759 6.49362C91.8808 6.54323 91.721 6.61766 91.5965 6.71689C91.472 6.81199 91.3786 6.92776 91.3163 7.06421C91.2541 7.19652 91.2229 7.34744 91.2229 7.51696C91.2229 7.68235 91.2603 7.83121 91.335 7.96352C91.4139 8.09583 91.5259 8.20126 91.6712 8.27982C91.8206 8.35425 91.9949 8.39146 92.1941 8.39146C92.4847 8.39146 92.7379 8.33358 92.9537 8.2178C93.1695 8.0979 93.3376 7.95318 93.458 7.78366C93.5783 7.61413 93.6427 7.45288 93.651 7.29989L94.1241 8.00693C94.066 8.17646 93.9788 8.35632 93.8626 8.54652C93.7464 8.73671 93.597 8.91451 93.4144 9.0799C93.2318 9.24529 93.0118 9.38173 92.7545 9.48924C92.4971 9.59674 92.1983 9.65049 91.858 9.65049C91.4222 9.65049 91.032 9.56366 90.6875 9.39C90.343 9.21634 90.0712 8.9786 89.8719 8.67676C89.6727 8.37492 89.5731 8.03174 89.5731 7.64721C89.5731 7.29162 89.6395 6.97738 89.7723 6.70449C89.9052 6.43159 90.1023 6.20212 90.3638 6.01605C90.6253 5.82585 90.949 5.68321 91.335 5.58811C91.7251 5.48887 92.1713 5.43926 92.6735 5.43926H93.7817Z" fill="#22295D"/>
<path d="M96.1729 0H97.8227V8.04414L97.6608 9.52645H96.1729V0ZM102.156 6.10288V6.23313C102.156 6.73343 102.1 7.19239 101.988 7.61C101.88 8.02761 101.716 8.3894 101.496 8.69537C101.276 8.9972 101.002 9.23288 100.674 9.40241C100.35 9.5678 99.9706 9.65049 99.5348 9.65049C99.1197 9.65049 98.7586 9.56986 98.4515 9.40861C98.1485 9.24735 97.8932 9.01994 97.6857 8.72638C97.4782 8.42868 97.3122 8.07929 97.1877 7.67822C97.0631 7.27301 96.9698 6.8306 96.9075 6.35097V5.99745C96.9698 5.51368 97.0631 5.07126 97.1877 4.67019C97.3122 4.26912 97.4782 3.91974 97.6857 3.62204C97.8932 3.32433 98.1485 3.09486 98.4515 2.9336C98.7545 2.77235 99.1114 2.69172 99.5223 2.69172C99.9623 2.69172 100.346 2.77648 100.674 2.94601C101.006 3.11139 101.28 3.34708 101.496 3.65305C101.716 3.95488 101.88 4.31461 101.988 4.73221C102.1 5.14569 102.156 5.60258 102.156 6.10288ZM100.506 6.23313V6.10288C100.506 5.81758 100.483 5.54883 100.437 5.29661C100.392 5.04025 100.317 4.81491 100.213 4.62058C100.11 4.42624 99.9685 4.27326 99.79 4.16162C99.6115 4.04998 99.3874 3.99416 99.1176 3.99416C98.8603 3.99416 98.6403 4.03758 98.4577 4.12441C98.2792 4.21124 98.1298 4.33114 98.0095 4.48413C97.8932 4.63712 97.8019 4.81698 97.7355 5.02371C97.6733 5.23045 97.6318 5.45373 97.611 5.69354V6.66107C97.6401 6.97945 97.7085 7.26681 97.8165 7.52317C97.9244 7.77539 98.0842 7.97592 98.2958 8.12477C98.5117 8.27362 98.7897 8.34805 99.1301 8.34805C99.3957 8.34805 99.6178 8.29636 99.7962 8.193C99.9747 8.08549 100.116 7.93664 100.22 7.74644C100.323 7.55211 100.396 7.32677 100.437 7.07041C100.483 6.81406 100.506 6.53496 100.506 6.23313Z" fill="#22295D"/>
<path d="M106.552 8.09996V5.00511C106.552 4.7777 106.512 4.5813 106.433 4.41591C106.354 4.25052 106.234 4.12234 106.072 4.03138C105.91 3.94041 105.705 3.89493 105.456 3.89493C105.236 3.89493 105.043 3.93214 104.877 4.00657C104.715 4.08099 104.591 4.18643 104.503 4.32287C104.416 4.45519 104.373 4.60817 104.373 4.78183H102.723C102.723 4.5048 102.789 4.24225 102.922 3.99416C103.055 3.74194 103.244 3.51867 103.489 3.32433C103.738 3.12587 104.034 2.97081 104.379 2.85918C104.727 2.74754 105.118 2.69172 105.549 2.69172C106.06 2.69172 106.514 2.77855 106.913 2.95221C107.315 3.12173 107.631 3.37809 107.859 3.72127C108.091 4.06445 108.208 4.49653 108.208 5.01751V7.94491C108.208 8.27982 108.228 8.56719 108.27 8.807C108.316 9.04268 108.382 9.24735 108.469 9.42101V9.52645H106.794C106.716 9.35693 106.655 9.14192 106.614 8.88143C106.572 8.61681 106.552 8.35632 106.552 8.09996ZM106.782 5.43926L106.794 6.41299H105.755C105.497 6.41299 105.271 6.43986 105.076 6.49362C104.881 6.54323 104.721 6.61766 104.597 6.71689C104.472 6.81199 104.379 6.92776 104.317 7.06421C104.254 7.19652 104.223 7.34744 104.223 7.51696C104.223 7.68235 104.261 7.83121 104.335 7.96352C104.414 8.09583 104.526 8.20126 104.671 8.27982C104.821 8.35425 104.995 8.39146 105.194 8.39146C105.485 8.39146 105.738 8.33358 105.954 8.2178C106.17 8.0979 106.338 7.95318 106.458 7.78366C106.579 7.61413 106.643 7.45288 106.651 7.29989L107.124 8.00693C107.066 8.17646 106.979 8.35632 106.863 8.54652C106.747 8.73671 106.597 8.91451 106.415 9.0799C106.232 9.24529 106.012 9.38173 105.755 9.48924C105.497 9.59674 105.199 9.65049 104.858 9.65049C104.422 9.65049 104.032 9.56366 103.688 9.39C103.343 9.21634 103.071 8.9786 102.872 8.67676C102.673 8.37492 102.573 8.03174 102.573 7.64721C102.573 7.29162 102.64 6.97738 102.773 6.70449C102.905 6.43159 103.103 6.20212 103.364 6.01605C103.626 5.82585 103.949 5.68321 104.335 5.58811C104.725 5.48887 105.172 5.43926 105.674 5.43926H106.782Z" fill="#22295D"/>
<path d="M113.22 8.09996V0H114.876V9.52645H113.382L113.22 8.09996ZM108.893 6.25173V6.12149C108.893 5.60878 108.951 5.14362 109.067 4.72601C109.188 4.30427 109.362 3.94248 109.59 3.64064C109.819 3.33881 110.095 3.10519 110.418 2.9398C110.746 2.77441 111.118 2.69172 111.533 2.69172C111.935 2.69172 112.286 2.77235 112.585 2.9336C112.888 3.09486 113.145 3.32433 113.357 3.62204C113.573 3.91974 113.745 4.27326 113.874 4.6826C114.002 5.0878 114.096 5.53435 114.154 6.02225V6.37578C114.096 6.85127 114.002 7.28749 113.874 7.68442C113.745 8.08136 113.573 8.42868 113.357 8.72638C113.145 9.01994 112.888 9.24735 112.585 9.40861C112.282 9.56986 111.927 9.65049 111.52 9.65049C111.109 9.65049 110.74 9.56573 110.412 9.39621C110.088 9.22668 109.812 8.98893 109.584 8.68296C109.36 8.37699 109.188 8.01727 109.067 7.60379C108.951 7.19032 108.893 6.73963 108.893 6.25173ZM110.543 6.12149V6.25173C110.543 6.54116 110.568 6.81199 110.618 7.06421C110.667 7.31643 110.748 7.53971 110.86 7.73404C110.972 7.92424 111.116 8.07309 111.29 8.18059C111.468 8.28809 111.684 8.34185 111.937 8.34185C112.261 8.34185 112.527 8.27156 112.734 8.13097C112.946 7.98626 113.11 7.78986 113.226 7.54177C113.342 7.28955 113.417 7.00632 113.45 6.69208V5.71835C113.434 5.47027 113.39 5.24079 113.319 5.02992C113.253 4.81904 113.158 4.63712 113.033 4.48413C112.913 4.33114 112.763 4.21124 112.585 4.12441C112.406 4.03758 112.195 3.99416 111.95 3.99416C111.697 3.99416 111.481 4.04998 111.302 4.16162C111.124 4.26912 110.979 4.42004 110.867 4.61437C110.754 4.80871 110.671 5.03405 110.618 5.2904C110.568 5.54676 110.543 5.82379 110.543 6.12149Z" fill="#22295D"/>
<path fill-rule="evenodd" clip-rule="evenodd" d="M144.701 1.18999C144.77 0.866283 145.054 0.635097 145.383 0.635097H165.303C165.513 0.635097 165.712 0.730532 165.844 0.894872C165.976 1.05921 166.028 1.27494 165.985 1.48208L164.569 8.26834C164.501 8.59354 164.217 8.82637 163.887 8.82637H150.35L149.884 11.1996C150.309 11.0456 150.749 10.9091 151.205 10.7899C152.192 10.5069 153.331 10.3719 154.61 10.3719C156.624 10.3719 158.351 10.6584 159.765 11.2639C161.146 11.855 162.28 12.6497 163.142 13.6607C164.019 14.6508 164.638 15.771 164.993 17.0166C165.37 18.1937 165.561 19.3774 165.561 20.5653C165.561 22.437 165.164 24.1826 164.367 25.7916C163.604 27.3959 162.497 28.7859 161.058 29.9603C159.643 31.141 157.917 32.0481 155.895 32.693C153.862 33.3413 151.593 33.6601 149.093 33.6601C148.122 33.6601 147.18 33.5929 146.269 33.4577C145.343 33.353 144.434 33.1451 143.543 32.8347C143.533 32.831 143.523 32.8272 143.512 32.8231C142.657 32.4785 141.792 32.0334 140.916 31.4905L140.906 31.4839C140.045 30.929 139.163 30.2094 138.259 29.3329C138.086 29.1653 138.011 28.9199 138.06 28.6834L139.476 21.8479C139.543 21.5223 139.828 21.2889 140.159 21.2889H147.873C148.074 21.2889 148.265 21.3763 148.397 21.5287C148.53 21.681 148.591 21.8835 148.564 22.0843C148.5 22.5696 148.452 22.9856 148.421 23.3336C148.391 23.6603 148.375 24.2069 148.375 24.9911C148.375 26.6089 148.591 27.6015 148.905 28.1128C149.206 28.6018 149.587 28.8128 150.119 28.8128C150.731 28.8128 151.251 28.5881 151.712 28.0978C152.227 27.5503 152.653 26.8613 152.983 26.0167C153.322 25.1169 153.57 24.1505 153.725 23.1156C153.884 22.0635 153.962 21.0826 153.962 20.1719C153.962 19.5513 153.915 18.9672 153.825 18.4187L153.824 18.4128C153.735 17.8454 153.59 17.3764 153.401 16.9946C153.222 16.6354 152.991 16.3718 152.71 16.1831C152.699 16.1759 152.689 16.1684 152.678 16.1606C152.431 15.9739 152.098 15.8585 151.632 15.8585C151.191 15.8585 150.688 15.9939 150.113 16.3125C149.619 16.5858 149.063 17.1679 148.472 18.1701C148.347 18.3833 148.119 18.514 147.873 18.514H141.867C141.657 18.514 141.457 18.4181 141.325 18.253C141.192 18.0879 141.141 17.8714 141.186 17.6639L144.701 1.18999ZM145.946 2.04012L142.731 17.109H147.484C148.073 16.1834 148.719 15.4811 149.441 15.0814C150.168 14.6787 150.901 14.4535 151.632 14.4535C152.331 14.4535 152.969 14.6297 153.5 15.0248C153.992 15.3596 154.374 15.8135 154.648 16.3663C154.914 16.9017 155.095 17.5135 155.201 18.1907C155.305 18.8215 155.357 19.4823 155.357 20.1719C155.357 21.1627 155.272 22.2144 155.105 23.3261C154.935 24.4534 154.663 25.5183 154.286 26.5189L154.283 26.5266C153.897 27.5161 153.38 28.3667 152.724 29.0641C152.014 29.8197 151.134 30.2178 150.119 30.2178C149.087 30.2178 148.265 29.7404 147.719 28.8524C147.187 27.9869 146.98 26.6518 146.98 24.9911C146.98 24.2017 146.996 23.6009 147.032 23.2064C147.046 23.047 147.063 22.8762 147.084 22.6939H140.726L139.505 28.5863C140.255 29.2891 140.971 29.8576 141.652 30.2973C142.462 30.7986 143.249 31.2027 144.015 31.5123C144.808 31.7875 145.615 31.9708 146.436 32.0627C146.441 32.0632 146.446 32.0638 146.45 32.0644C146.454 32.0649 146.458 32.0654 146.461 32.066C147.304 32.1918 148.181 32.2551 149.093 32.2551C151.476 32.2551 153.601 31.951 155.474 31.3535C157.356 30.7531 158.916 29.9235 160.17 28.8762L160.177 28.8709C161.468 27.8179 162.442 26.588 163.111 25.1798L163.116 25.1687C163.814 23.7631 164.166 22.2322 164.166 20.5653C164.166 19.5278 163.999 18.486 163.662 17.4376C163.66 17.4299 163.658 17.4222 163.655 17.4144C163.36 16.372 162.843 15.4326 162.097 14.5912L162.088 14.5805C161.388 13.7582 160.44 13.0794 159.22 12.5569C158.03 12.0477 156.503 11.7769 154.61 11.7769C153.42 11.7769 152.413 11.9034 151.58 12.1433C151.574 12.1449 151.569 12.1464 151.563 12.1478C150.723 12.3671 149.952 12.6473 149.248 12.9867C149.01 13.1014 148.728 13.0709 148.519 12.908C148.311 12.745 148.211 12.4775 148.263 12.2167L149.093 7.98763C149.157 7.65853 149.444 7.42135 149.777 7.42135H163.321L164.443 2.04012H145.946Z" fill="#22295D"/>
<path fill-rule="evenodd" clip-rule="evenodd" d="M131.679 0.902301C131.812 0.73355 132.013 0.635097 132.227 0.635097H139.697C139.907 0.635097 140.107 0.730958 140.239 0.895925C140.372 1.06089 140.423 1.27729 140.379 1.48473L133.739 32.7113C133.67 33.0353 133.386 33.2667 133.057 33.2667H122.511C122.3 33.2667 122.101 33.171 121.969 33.0062C121.836 32.8415 121.785 32.6253 121.829 32.4179L126.483 10.4H122.072C121.86 10.4 121.66 10.3031 121.527 10.1366C121.395 9.97016 121.345 9.75213 121.391 9.544L122.123 6.24923C122.186 5.96488 122.417 5.74935 122.704 5.70749C124.645 5.42364 126.385 4.84242 127.931 3.97026L127.936 3.96738C129.531 3.08577 130.771 2.06094 131.679 0.902301ZM132.558 2.04012C131.54 3.25806 130.218 4.30799 128.61 5.19757C127.033 6.08688 125.288 6.69335 123.381 7.02202L122.942 8.99497H127.344C127.555 8.99497 127.754 9.0907 127.887 9.25547C128.019 9.42024 128.07 9.63643 128.027 9.84377L123.373 31.8617H132.493L138.834 2.04012H132.558Z" fill="#22295D"/>
</svg>
