<svg width="209" height="50" viewBox="0 0 209 50" fill="none" xmlns="http://www.w3.org/2000/svg">
<path d="M15.9668 37.4619V39H3.96973V37.4619H15.9668ZM4.51172 17.6719V39H2.70996V17.6719H4.51172ZM14.4727 27.2373V28.7754H3.96973V27.2373H14.4727ZM15.8936 17.6719V19.2246H3.96973V17.6719H15.8936ZM19.8352 26.4316V39H18.0773V23.1504H19.7619L19.8352 26.4316ZM19.5129 30.0938L18.6633 29.6543C18.7219 28.7168 18.8977 27.8379 19.1906 27.0176C19.4934 26.1973 19.9133 25.4746 20.4504 24.8496C20.9875 24.2246 21.632 23.7363 22.384 23.3848C23.1359 23.0332 23.9904 22.8574 24.9475 22.8574C25.7189 22.8574 26.4172 22.9648 27.0422 23.1797C27.677 23.3848 28.2141 23.7119 28.6535 24.1611C29.1027 24.6006 29.4494 25.1768 29.6936 25.8896C29.9377 26.6025 30.0598 27.457 30.0598 28.4531V39H28.3166V28.5117C28.3166 27.457 28.1506 26.6318 27.8186 26.0361C27.4963 25.4404 27.0422 25.0156 26.4563 24.7617C25.8801 24.5078 25.2111 24.3809 24.4494 24.3809C23.551 24.3809 22.7893 24.5664 22.1643 24.9375C21.549 25.2988 21.0461 25.7725 20.6555 26.3584C20.2746 26.9346 19.9914 27.5547 19.8059 28.2188C19.6203 28.873 19.5227 29.498 19.5129 30.0938ZM30.0451 28.7168L28.8732 28.7461C28.9221 27.9746 29.0979 27.2373 29.4006 26.5342C29.7131 25.8311 30.1379 25.2061 30.675 24.6592C31.2121 24.1025 31.8518 23.6631 32.5939 23.3408C33.3459 23.0186 34.1906 22.8574 35.1281 22.8574C35.9484 22.8574 36.6809 22.9697 37.3254 23.1943C37.9699 23.4092 38.5119 23.7559 38.9514 24.2344C39.4006 24.7031 39.7424 25.3037 39.9768 26.0361C40.2111 26.7686 40.3283 27.6475 40.3283 28.6729V39H38.5705V28.6582C38.5705 27.5352 38.4045 26.666 38.0725 26.0508C37.7502 25.4258 37.301 24.9912 36.7248 24.7471C36.1486 24.5029 35.4748 24.3809 34.7033 24.3809C33.9416 24.3906 33.2727 24.5322 32.6965 24.8057C32.1203 25.0693 31.6369 25.4209 31.2463 25.8604C30.8654 26.29 30.5725 26.7539 30.3674 27.252C30.1721 27.75 30.0646 28.2383 30.0451 28.7168ZM49.7045 39.293C48.6693 39.293 47.7172 39.1025 46.848 38.7217C45.9887 38.3408 45.2367 37.8037 44.5922 37.1104C43.9574 36.417 43.4643 35.5967 43.1127 34.6494C42.7709 33.6924 42.6 32.6475 42.6 31.5146V30.8848C42.6 29.6641 42.7807 28.5605 43.142 27.5742C43.5033 26.5879 44.0014 25.7432 44.6361 25.04C45.2709 24.3369 45.9936 23.7998 46.8041 23.4287C47.6244 23.0479 48.4838 22.8574 49.3822 22.8574C50.3881 22.8574 51.2816 23.0381 52.0629 23.3994C52.8441 23.751 53.4984 24.2539 54.0258 24.9082C54.5629 25.5527 54.9682 26.3193 55.2416 27.208C55.515 28.0869 55.6518 29.0586 55.6518 30.123V31.1924H43.6547V29.6982H53.9086V29.4932C53.8891 28.6045 53.7084 27.7744 53.3666 27.0029C53.0346 26.2217 52.5365 25.5869 51.8725 25.0986C51.2084 24.6104 50.3783 24.3662 49.3822 24.3662C48.64 24.3662 47.9564 24.5225 47.3314 24.835C46.7162 25.1475 46.184 25.5967 45.7348 26.1826C45.2953 26.7588 44.9535 27.4473 44.7094 28.248C44.475 29.0391 44.3578 29.918 44.3578 30.8848V31.5146C44.3578 32.3936 44.4848 33.2139 44.7387 33.9756C45.0023 34.7275 45.3734 35.3916 45.852 35.9678C46.3402 36.5439 46.9164 36.9932 47.5805 37.3154C48.2445 37.6377 48.977 37.7988 49.7777 37.7988C50.7152 37.7988 51.5453 37.6279 52.268 37.2861C52.9906 36.9346 53.64 36.3828 54.2162 35.6309L55.3148 36.4805C54.973 36.9883 54.5434 37.457 54.0258 37.8867C53.518 38.3164 52.9076 38.6582 52.1947 38.9121C51.4818 39.166 50.6518 39.293 49.7045 39.293ZM59.652 25.7725V39H57.9088V23.1504H59.608L59.652 25.7725ZM65.2623 23.0332L65.2184 24.6445C65.023 24.6152 64.8326 24.5908 64.6471 24.5713C64.4615 24.5518 64.2613 24.542 64.0465 24.542C63.2848 24.542 62.6158 24.6836 62.0396 24.9668C61.4732 25.2402 60.9947 25.626 60.6041 26.124C60.2135 26.6123 59.9156 27.1885 59.7105 27.8525C59.5055 28.5068 59.3883 29.21 59.359 29.9619L58.7145 30.2109C58.7145 29.1758 58.8219 28.2139 59.0367 27.3252C59.2516 26.4365 59.5787 25.6602 60.0182 24.9961C60.4674 24.3223 61.0289 23.7998 61.7027 23.4287C62.3863 23.0479 63.1871 22.8574 64.1051 22.8574C64.3297 22.8574 64.5494 22.877 64.7643 22.916C64.9889 22.9453 65.1549 22.9844 65.2623 23.0332ZM76.9529 23.1504H78.5789V38.7217C78.5789 40.0986 78.3152 41.2803 77.7879 42.2666C77.2703 43.2529 76.533 44.0098 75.576 44.5371C74.6287 45.0645 73.5105 45.3281 72.2215 45.3281C71.5672 45.3281 70.8934 45.2256 70.2 45.0205C69.5164 44.8252 68.867 44.5225 68.2518 44.1123C67.6463 43.7119 67.1287 43.2139 66.699 42.6182L67.6805 41.5488C68.325 42.3301 69.0135 42.9014 69.7459 43.2627C70.4783 43.6338 71.2693 43.8193 72.1189 43.8193C73.1248 43.8193 73.9744 43.6191 74.6678 43.2188C75.3709 42.8184 75.9031 42.2422 76.2645 41.4902C76.6355 40.7383 76.8211 39.835 76.8211 38.7803V26.6367L76.9529 23.1504ZM65.8201 31.2363V30.9287C65.8201 29.6982 65.9568 28.5898 66.2303 27.6035C66.5135 26.6074 66.9187 25.7578 67.4461 25.0547C67.9734 24.3418 68.6131 23.7998 69.365 23.4287C70.1268 23.0479 70.9861 22.8574 71.9432 22.8574C72.8611 22.8574 73.6766 23.0088 74.3895 23.3115C75.1023 23.6143 75.7176 24.0488 76.2352 24.6152C76.7527 25.1816 77.1678 25.8555 77.4803 26.6367C77.8025 27.418 78.0369 28.2871 78.1834 29.2441V33.1553C78.0662 34.0537 77.8514 34.8789 77.5389 35.6309C77.2264 36.373 76.8113 37.0225 76.2937 37.5791C75.7762 38.126 75.1512 38.5508 74.4187 38.8535C73.6961 39.1465 72.8611 39.293 71.9139 39.293C70.9666 39.293 70.117 39.0977 69.365 38.707C68.6131 38.3164 67.9734 37.7646 67.4461 37.0518C66.9187 36.3291 66.5135 35.4746 66.2303 34.4883C65.9568 33.502 65.8201 32.418 65.8201 31.2363ZM67.5779 30.9287V31.2363C67.5779 32.1641 67.6707 33.0234 67.8562 33.8145C68.0418 34.6055 68.325 35.2939 68.7059 35.8799C69.0867 36.4658 69.5701 36.9248 70.1561 37.2568C70.742 37.5889 71.4305 37.7549 72.2215 37.7549C73.2273 37.7549 74.0721 37.5645 74.7557 37.1836C75.4393 36.793 75.9812 36.2803 76.3816 35.6455C76.782 35.001 77.075 34.2979 77.2605 33.5361V28.9805C77.1531 28.4629 76.9871 27.9355 76.7625 27.3984C76.5477 26.8613 76.2449 26.3682 75.8543 25.9189C75.4734 25.46 74.9852 25.0938 74.3895 24.8203C73.8035 24.5371 73.0906 24.3955 72.2508 24.3955C71.45 24.3955 70.7518 24.5615 70.1561 24.8936C69.5701 25.2256 69.0867 25.6895 68.7059 26.2852C68.325 26.8711 68.0418 27.5596 67.8562 28.3506C67.6707 29.1416 67.5779 30.001 67.5779 30.9287ZM88.0869 39.293C87.0518 39.293 86.0996 39.1025 85.2305 38.7217C84.3711 38.3408 83.6191 37.8037 82.9746 37.1104C82.3398 36.417 81.8467 35.5967 81.4951 34.6494C81.1533 33.6924 80.9824 32.6475 80.9824 31.5146V30.8848C80.9824 29.6641 81.1631 28.5605 81.5244 27.5742C81.8857 26.5879 82.3838 25.7432 83.0186 25.04C83.6533 24.3369 84.376 23.7998 85.1865 23.4287C86.0068 23.0479 86.8662 22.8574 87.7646 22.8574C88.7705 22.8574 89.6641 23.0381 90.4453 23.3994C91.2266 23.751 91.8809 24.2539 92.4082 24.9082C92.9453 25.5527 93.3506 26.3193 93.624 27.208C93.8975 28.0869 94.0342 29.0586 94.0342 30.123V31.1924H82.0371V29.6982H92.291V29.4932C92.2715 28.6045 92.0908 27.7744 91.749 27.0029C91.417 26.2217 90.9189 25.5869 90.2549 25.0986C89.5908 24.6104 88.7607 24.3662 87.7646 24.3662C87.0225 24.3662 86.3389 24.5225 85.7139 24.835C85.0986 25.1475 84.5664 25.5967 84.1172 26.1826C83.6777 26.7588 83.3359 27.4473 83.0918 28.248C82.8574 29.0391 82.7402 29.918 82.7402 30.8848V31.5146C82.7402 32.3936 82.8672 33.2139 83.1211 33.9756C83.3848 34.7275 83.7559 35.3916 84.2344 35.9678C84.7227 36.5439 85.2988 36.9932 85.9629 37.3154C86.627 37.6377 87.3594 37.7988 88.1602 37.7988C89.0977 37.7988 89.9277 37.6279 90.6504 37.2861C91.373 36.9346 92.0225 36.3828 92.5986 35.6309L93.6973 36.4805C93.3555 36.9883 92.9258 37.457 92.4082 37.8867C91.9004 38.3164 91.29 38.6582 90.5771 38.9121C89.8643 39.166 89.0342 39.293 88.0869 39.293ZM98.0344 26.5342V39H96.2912V23.1504H97.9611L98.0344 26.5342ZM97.6389 30.0938L96.8625 29.6543C96.9211 28.7168 97.1115 27.8379 97.4338 27.0176C97.7561 26.1973 98.1906 25.4746 98.7375 24.8496C99.2941 24.2246 99.9436 23.7363 100.686 23.3848C101.438 23.0332 102.268 22.8574 103.176 22.8574C103.967 22.8574 104.675 22.9648 105.3 23.1797C105.925 23.3945 106.457 23.7363 106.897 24.2051C107.336 24.6738 107.668 25.2744 107.893 26.0068C108.127 26.7393 108.244 27.6328 108.244 28.6875V39H106.487V28.6729C106.487 27.5791 106.335 26.7246 106.032 26.1094C105.73 25.4844 105.3 25.04 104.743 24.7764C104.187 24.5127 103.528 24.3809 102.766 24.3809C101.926 24.3809 101.189 24.5664 100.554 24.9375C99.9289 25.2988 99.4016 25.7725 98.9719 26.3584C98.552 26.9346 98.2297 27.5547 98.0051 28.2188C97.7805 28.873 97.6584 29.498 97.6389 30.0938ZM117.43 37.7842C118.172 37.7842 118.866 37.6475 119.51 37.374C120.164 37.0908 120.702 36.6758 121.121 36.1289C121.551 35.5723 121.795 34.8936 121.854 34.0928H123.524C123.475 35.0986 123.167 35.9971 122.601 36.7881C122.044 37.5693 121.312 38.1846 120.404 38.6338C119.505 39.0732 118.514 39.293 117.43 39.293C116.327 39.293 115.35 39.0928 114.5 38.6924C113.661 38.292 112.957 37.7354 112.391 37.0225C111.825 36.2998 111.395 35.46 111.102 34.5029C110.819 33.5361 110.677 32.4961 110.677 31.3828V30.7676C110.677 29.6543 110.819 28.6191 111.102 27.6621C111.395 26.6953 111.825 25.8555 112.391 25.1426C112.957 24.4199 113.661 23.8584 114.5 23.458C115.34 23.0576 116.312 22.8574 117.415 22.8574C118.548 22.8574 119.564 23.0869 120.462 23.5459C121.371 24.0049 122.093 24.6543 122.63 25.4941C123.177 26.334 123.475 27.3301 123.524 28.4824H121.854C121.805 27.6328 121.58 26.9004 121.18 26.2852C120.78 25.6699 120.252 25.1963 119.598 24.8643C118.944 24.5322 118.216 24.3662 117.415 24.3662C116.517 24.3662 115.75 24.542 115.116 24.8936C114.481 25.2354 113.963 25.709 113.563 26.3145C113.172 26.9102 112.884 27.5938 112.699 28.3652C112.513 29.127 112.42 29.9277 112.42 30.7676V31.3828C112.42 32.2324 112.508 33.043 112.684 33.8145C112.87 34.5762 113.158 35.2549 113.548 35.8506C113.949 36.4463 114.466 36.9199 115.101 37.2715C115.746 37.6133 116.522 37.7842 117.43 37.7842ZM130.556 37.418L135.493 23.1504H137.382L130.673 41.5488C130.537 41.9102 130.361 42.3105 130.146 42.75C129.941 43.1895 129.668 43.6094 129.326 44.0098C128.994 44.4199 128.574 44.752 128.066 45.0059C127.568 45.2695 126.958 45.4014 126.235 45.4014C126.049 45.4014 125.81 45.377 125.517 45.3281C125.234 45.2891 125.029 45.25 124.902 45.2109L124.887 43.7314C124.995 43.7607 125.151 43.7852 125.356 43.8047C125.561 43.8242 125.703 43.834 125.781 43.834C126.416 43.834 126.948 43.7266 127.378 43.5117C127.817 43.2969 128.183 42.9746 128.476 42.5449C128.769 42.125 129.028 41.5977 129.253 40.9629L130.556 37.418ZM125.942 23.1504L130.996 36.7588L131.464 38.5898L130.19 39.3076L124.038 23.1504H125.942Z" fill="white"/>
<path d="M71.375 3.625V15H69.2266V3.625H71.375ZM77.5475 12.6875C77.5475 12.5104 77.5006 12.3516 77.4069 12.2109C77.3131 12.0703 77.136 11.9427 76.8756 11.8281C76.6204 11.7083 76.2454 11.5964 75.7506 11.4922C75.3131 11.3984 74.9095 11.2812 74.5397 11.1406C74.1699 11 73.8522 10.8307 73.5866 10.6328C73.3209 10.4297 73.1126 10.1927 72.9616 9.92188C72.8157 9.64583 72.7428 9.32812 72.7428 8.96875C72.7428 8.61979 72.8183 8.29167 72.9694 7.98438C73.1204 7.67188 73.3392 7.39844 73.6256 7.16406C73.9121 6.92448 74.261 6.73698 74.6725 6.60156C75.084 6.46094 75.5475 6.39062 76.0631 6.39062C76.7819 6.39062 77.3991 6.50781 77.9147 6.74219C78.4355 6.97656 78.834 7.29948 79.11 7.71094C79.386 8.11719 79.5241 8.57552 79.5241 9.08594H77.4616C77.4616 8.86198 77.4095 8.65885 77.3053 8.47656C77.2064 8.29427 77.0527 8.14844 76.8444 8.03906C76.636 7.92448 76.373 7.86719 76.0553 7.86719C75.7689 7.86719 75.5267 7.91406 75.3288 8.00781C75.136 8.10156 74.9902 8.22396 74.8913 8.375C74.7923 8.52604 74.7428 8.69271 74.7428 8.875C74.7428 9.01042 74.7689 9.13281 74.8209 9.24219C74.8782 9.34635 74.9694 9.44271 75.0944 9.53125C75.2194 9.61979 75.3886 9.70052 75.6022 9.77344C75.8209 9.84635 76.0892 9.91667 76.4069 9.98438C77.0371 10.1094 77.5866 10.276 78.0553 10.4844C78.5293 10.6875 78.8991 10.9583 79.1647 11.2969C79.4303 11.6354 79.5631 12.0677 79.5631 12.5938C79.5631 12.9688 79.4824 13.3125 79.3209 13.625C79.1595 13.9323 78.9251 14.2005 78.6178 14.4297C78.3105 14.6589 77.9433 14.8385 77.5163 14.9688C77.0892 15.0938 76.6074 15.1562 76.0709 15.1562C75.2949 15.1562 74.6386 15.0182 74.1022 14.7422C73.5657 14.4609 73.1595 14.1068 72.8834 13.6797C72.6074 13.2474 72.4694 12.7995 72.4694 12.3359H74.4459C74.4616 12.6641 74.5501 12.9271 74.7116 13.125C74.873 13.3229 75.0761 13.4661 75.3209 13.5547C75.5709 13.638 75.834 13.6797 76.11 13.6797C76.4225 13.6797 76.6855 13.638 76.8991 13.5547C77.1126 13.4661 77.2741 13.349 77.3834 13.2031C77.4928 13.0521 77.5475 12.8802 77.5475 12.6875ZM82.6809 3V15H80.6106V3H82.6809ZM88.6659 13.2031V9.30469C88.6659 9.01823 88.6165 8.77083 88.5175 8.5625C88.4185 8.35417 88.2675 8.19271 88.0644 8.07812C87.8612 7.96354 87.6034 7.90625 87.2909 7.90625C87.0149 7.90625 86.7727 7.95312 86.5644 8.04688C86.3612 8.14062 86.205 8.27344 86.0956 8.44531C85.9862 8.61198 85.9316 8.80469 85.9316 9.02344H83.8612C83.8612 8.67448 83.9446 8.34375 84.1112 8.03125C84.2779 7.71354 84.5149 7.43229 84.8222 7.1875C85.1347 6.9375 85.5071 6.74219 85.9394 6.60156C86.3769 6.46094 86.8665 6.39062 87.4081 6.39062C88.0487 6.39062 88.6191 6.5 89.1191 6.71875C89.6243 6.93229 90.0201 7.25521 90.3066 7.6875C90.5982 8.11979 90.7441 8.66406 90.7441 9.32031V13.0078C90.7441 13.4297 90.7701 13.7917 90.8222 14.0938C90.8795 14.3906 90.9628 14.6484 91.0722 14.8672V15H88.9706C88.8717 14.7865 88.7961 14.5156 88.7441 14.1875C88.692 13.8542 88.6659 13.526 88.6659 13.2031ZM88.955 9.85156L88.9706 11.0781H87.6659C87.343 11.0781 87.0592 11.112 86.8144 11.1797C86.5696 11.2422 86.3691 11.3359 86.2128 11.4609C86.0566 11.5807 85.9394 11.7266 85.8612 11.8984C85.7831 12.0651 85.7441 12.2552 85.7441 12.4688C85.7441 12.6771 85.7909 12.8646 85.8847 13.0312C85.9836 13.1979 86.1243 13.3307 86.3066 13.4297C86.4941 13.5234 86.7128 13.5703 86.9628 13.5703C87.3274 13.5703 87.6451 13.4974 87.9159 13.3516C88.1868 13.2005 88.3977 13.0182 88.5487 12.8047C88.6998 12.5911 88.7805 12.388 88.7909 12.1953L89.3847 13.0859C89.3118 13.2995 89.2024 13.526 89.0566 13.7656C88.9107 14.0052 88.7232 14.2292 88.4941 14.4375C88.2649 14.6458 87.9889 14.8177 87.6659 14.9531C87.343 15.0885 86.968 15.1562 86.5409 15.1562C85.9941 15.1562 85.5045 15.0469 85.0722 14.8281C84.6399 14.6094 84.2987 14.3099 84.0487 13.9297C83.7987 13.5495 83.6737 13.1172 83.6737 12.6328C83.6737 12.1849 83.7571 11.7891 83.9237 11.4453C84.0904 11.1016 84.3378 10.8125 84.6659 10.5781C84.9941 10.3385 85.4003 10.1589 85.8847 10.0391C86.3743 9.91406 86.9342 9.85156 87.5644 9.85156H88.955ZM94.0181 8.28125V15H91.9556V6.54688H93.9009L94.0181 8.28125ZM93.7134 10.4688H93.0806C93.0806 9.88021 93.1509 9.33854 93.2916 8.84375C93.4374 8.34896 93.6509 7.91927 93.9322 7.55469C94.2134 7.1849 94.5598 6.89844 94.9713 6.69531C95.3879 6.49219 95.8697 6.39062 96.4166 6.39062C96.7968 6.39062 97.1457 6.44792 97.4634 6.5625C97.7811 6.67188 98.0546 6.84635 98.2838 7.08594C98.5181 7.32031 98.6978 7.6276 98.8228 8.00781C98.9478 8.38281 99.0103 8.83333 99.0103 9.35938V15H96.9478V9.57031C96.9478 9.17448 96.8905 8.86458 96.7759 8.64062C96.6666 8.41667 96.5077 8.26042 96.2994 8.17188C96.091 8.07812 95.841 8.03125 95.5494 8.03125C95.2265 8.03125 94.9478 8.09635 94.7134 8.22656C94.4843 8.35156 94.2942 8.52604 94.1431 8.75C93.9973 8.97396 93.8879 9.23177 93.815 9.52344C93.7473 9.8151 93.7134 10.1302 93.7134 10.4688ZM98.8541 10.0859L98.0025 10.2422C98.0077 9.71094 98.0806 9.21354 98.2213 8.75C98.3619 8.28125 98.5676 7.8724 98.8384 7.52344C99.1145 7.16927 99.4556 6.89323 99.8619 6.69531C100.273 6.49219 100.747 6.39062 101.284 6.39062C101.7 6.39062 102.075 6.45052 102.409 6.57031C102.747 6.6849 103.036 6.86979 103.276 7.125C103.516 7.375 103.698 7.70052 103.823 8.10156C103.953 8.5026 104.018 8.99219 104.018 9.57031V15H101.94V9.5625C101.94 9.15104 101.883 8.83594 101.768 8.61719C101.659 8.39844 101.5 8.2474 101.292 8.16406C101.083 8.07552 100.838 8.03125 100.557 8.03125C100.271 8.03125 100.021 8.08594 99.8072 8.19531C99.5989 8.29948 99.4218 8.44531 99.2759 8.63281C99.1353 8.82031 99.0285 9.03906 98.9556 9.28906C98.8879 9.53385 98.8541 9.79948 98.8541 10.0859ZM109.886 13.2031V9.30469C109.886 9.01823 109.836 8.77083 109.737 8.5625C109.639 8.35417 109.487 8.19271 109.284 8.07812C109.081 7.96354 108.823 7.90625 108.511 7.90625C108.235 7.90625 107.993 7.95312 107.784 8.04688C107.581 8.14062 107.425 8.27344 107.316 8.44531C107.206 8.61198 107.152 8.80469 107.152 9.02344H105.081C105.081 8.67448 105.165 8.34375 105.331 8.03125C105.498 7.71354 105.735 7.43229 106.042 7.1875C106.355 6.9375 106.727 6.74219 107.159 6.60156C107.597 6.46094 108.086 6.39062 108.628 6.39062C109.269 6.39062 109.839 6.5 110.339 6.71875C110.844 6.93229 111.24 7.25521 111.527 7.6875C111.818 8.11979 111.964 8.66406 111.964 9.32031V13.0078C111.964 13.4297 111.99 13.7917 112.042 14.0938C112.099 14.3906 112.183 14.6484 112.292 14.8672V15H110.191C110.092 14.7865 110.016 14.5156 109.964 14.1875C109.912 13.8542 109.886 13.526 109.886 13.2031ZM110.175 9.85156L110.191 11.0781H108.886C108.563 11.0781 108.279 11.112 108.034 11.1797C107.79 11.2422 107.589 11.3359 107.433 11.4609C107.277 11.5807 107.159 11.7266 107.081 11.8984C107.003 12.0651 106.964 12.2552 106.964 12.4688C106.964 12.6771 107.011 12.8646 107.105 13.0312C107.204 13.1979 107.344 13.3307 107.527 13.4297C107.714 13.5234 107.933 13.5703 108.183 13.5703C108.547 13.5703 108.865 13.4974 109.136 13.3516C109.407 13.2005 109.618 13.0182 109.769 12.8047C109.92 12.5911 110.001 12.388 110.011 12.1953L110.605 13.0859C110.532 13.2995 110.422 13.526 110.277 13.7656C110.131 14.0052 109.943 14.2292 109.714 14.4375C109.485 14.6458 109.209 14.8177 108.886 14.9531C108.563 15.0885 108.188 15.1562 107.761 15.1562C107.214 15.1562 106.724 15.0469 106.292 14.8281C105.86 14.6094 105.519 14.3099 105.269 13.9297C105.019 13.5495 104.894 13.1172 104.894 12.6328C104.894 12.1849 104.977 11.7891 105.144 11.4453C105.31 11.1016 105.558 10.8125 105.886 10.5781C106.214 10.3385 106.62 10.1589 107.105 10.0391C107.594 9.91406 108.154 9.85156 108.784 9.85156H110.175ZM113.176 3H115.246V13.1328L115.043 15H113.176V3ZM120.683 10.6875V10.8516C120.683 11.4818 120.613 12.0599 120.472 12.5859C120.337 13.112 120.131 13.5677 119.855 13.9531C119.579 14.3333 119.236 14.6302 118.824 14.8438C118.418 15.0521 117.941 15.1562 117.394 15.1562C116.874 15.1562 116.42 15.0547 116.035 14.8516C115.655 14.6484 115.334 14.362 115.074 13.9922C114.814 13.6172 114.605 13.1771 114.449 12.6719C114.293 12.1615 114.176 11.6042 114.097 11V10.5547C114.176 9.94531 114.293 9.38802 114.449 8.88281C114.605 8.3776 114.814 7.9375 115.074 7.5625C115.334 7.1875 115.655 6.89844 116.035 6.69531C116.415 6.49219 116.863 6.39062 117.379 6.39062C117.931 6.39062 118.413 6.4974 118.824 6.71094C119.241 6.91927 119.584 7.21615 119.855 7.60156C120.131 7.98177 120.337 8.4349 120.472 8.96094C120.613 9.48177 120.683 10.0573 120.683 10.6875ZM118.613 10.8516V10.6875C118.613 10.3281 118.584 9.98958 118.527 9.67188C118.47 9.34896 118.376 9.0651 118.246 8.82031C118.116 8.57552 117.939 8.38281 117.715 8.24219C117.491 8.10156 117.209 8.03125 116.871 8.03125C116.548 8.03125 116.272 8.08594 116.043 8.19531C115.819 8.30469 115.631 8.45573 115.48 8.64844C115.334 8.84115 115.22 9.06771 115.137 9.32812C115.058 9.58854 115.006 9.86979 114.98 10.1719V11.3906C115.017 11.7917 115.103 12.1536 115.238 12.4766C115.374 12.7943 115.574 13.0469 115.84 13.2344C116.111 13.4219 116.459 13.5156 116.887 13.5156C117.22 13.5156 117.499 13.4505 117.722 13.3203C117.946 13.1849 118.124 12.9974 118.254 12.7578C118.384 12.513 118.475 12.2292 118.527 11.9062C118.584 11.5833 118.613 11.2318 118.613 10.8516ZM126.2 13.2031V9.30469C126.2 9.01823 126.15 8.77083 126.051 8.5625C125.952 8.35417 125.801 8.19271 125.598 8.07812C125.395 7.96354 125.137 7.90625 124.825 7.90625C124.549 7.90625 124.306 7.95312 124.098 8.04688C123.895 8.14062 123.739 8.27344 123.629 8.44531C123.52 8.61198 123.465 8.80469 123.465 9.02344H121.395C121.395 8.67448 121.478 8.34375 121.645 8.03125C121.812 7.71354 122.049 7.43229 122.356 7.1875C122.668 6.9375 123.041 6.74219 123.473 6.60156C123.911 6.46094 124.4 6.39062 124.942 6.39062C125.583 6.39062 126.153 6.5 126.653 6.71875C127.158 6.93229 127.554 7.25521 127.84 7.6875C128.132 8.11979 128.278 8.66406 128.278 9.32031V13.0078C128.278 13.4297 128.304 13.7917 128.356 14.0938C128.413 14.3906 128.497 14.6484 128.606 14.8672V15H126.504C126.405 14.7865 126.33 14.5156 126.278 14.1875C126.226 13.8542 126.2 13.526 126.2 13.2031ZM126.489 9.85156L126.504 11.0781H125.2C124.877 11.0781 124.593 11.112 124.348 11.1797C124.103 11.2422 123.903 11.3359 123.747 11.4609C123.59 11.5807 123.473 11.7266 123.395 11.8984C123.317 12.0651 123.278 12.2552 123.278 12.4688C123.278 12.6771 123.325 12.8646 123.418 13.0312C123.517 13.1979 123.658 13.3307 123.84 13.4297C124.028 13.5234 124.247 13.5703 124.497 13.5703C124.861 13.5703 125.179 13.4974 125.45 13.3516C125.721 13.2005 125.931 13.0182 126.083 12.8047C126.234 12.5911 126.314 12.388 126.325 12.1953L126.918 13.0859C126.846 13.2995 126.736 13.526 126.59 13.7656C126.444 14.0052 126.257 14.2292 126.028 14.4375C125.799 14.6458 125.523 14.8177 125.2 14.9531C124.877 15.0885 124.502 15.1562 124.075 15.1562C123.528 15.1562 123.038 15.0469 122.606 14.8281C122.174 14.6094 121.833 14.3099 121.583 13.9297C121.333 13.5495 121.208 13.1172 121.208 12.6328C121.208 12.1849 121.291 11.7891 121.458 11.4453C121.624 11.1016 121.872 10.8125 122.2 10.5781C122.528 10.3385 122.934 10.1589 123.418 10.0391C123.908 9.91406 124.468 9.85156 125.098 9.85156H126.489ZM134.568 13.2031V3H136.646V15H134.771L134.568 13.2031ZM129.138 10.875V10.7109C129.138 10.0651 129.211 9.47917 129.357 8.95312C129.508 8.42188 129.726 7.96615 130.013 7.58594C130.299 7.20573 130.646 6.91146 131.052 6.70312C131.463 6.49479 131.929 6.39062 132.45 6.39062C132.956 6.39062 133.396 6.49219 133.771 6.69531C134.151 6.89844 134.474 7.1875 134.739 7.5625C135.01 7.9375 135.226 8.38281 135.388 8.89844C135.549 9.40885 135.666 9.97135 135.739 10.5859V11.0312C135.666 11.6302 135.549 12.1797 135.388 12.6797C135.226 13.1797 135.01 13.6172 134.739 13.9922C134.474 14.362 134.151 14.6484 133.771 14.8516C133.39 15.0547 132.945 15.1562 132.435 15.1562C131.919 15.1562 131.456 15.0495 131.044 14.8359C130.638 14.6224 130.291 14.3229 130.005 13.9375C129.724 13.5521 129.508 13.099 129.357 12.5781C129.211 12.0573 129.138 11.4896 129.138 10.875ZM131.208 10.7109V10.875C131.208 11.2396 131.239 11.5807 131.302 11.8984C131.364 12.2161 131.466 12.4974 131.607 12.7422C131.747 12.9818 131.927 13.1693 132.146 13.3047C132.37 13.4401 132.64 13.5078 132.958 13.5078C133.364 13.5078 133.698 13.4193 133.958 13.2422C134.224 13.0599 134.429 12.8125 134.575 12.5C134.721 12.1823 134.815 11.8255 134.857 11.4297V10.2031C134.836 9.89062 134.781 9.60156 134.693 9.33594C134.609 9.07031 134.489 8.84115 134.333 8.64844C134.182 8.45573 133.995 8.30469 133.771 8.19531C133.547 8.08594 133.281 8.03125 132.974 8.03125C132.656 8.03125 132.385 8.10156 132.161 8.24219C131.937 8.3776 131.755 8.56771 131.614 8.8125C131.474 9.05729 131.37 9.34115 131.302 9.66406C131.239 9.98698 131.208 10.3359 131.208 10.7109Z" fill="white"/>
<path fill-rule="evenodd" clip-rule="evenodd" d="M177.802 3.33968C177.901 2.87889 178.308 2.5498 178.78 2.5498H207.34C207.641 2.5498 207.926 2.68565 208.116 2.91959C208.306 3.15352 208.38 3.4606 208.318 3.75546L206.288 13.4155C206.191 13.8784 205.783 14.2098 205.31 14.2098H185.901L185.234 17.588C185.843 17.3688 186.474 17.1745 187.127 17.0049C188.543 16.6019 190.175 16.4098 192.01 16.4098C194.896 16.4098 197.373 16.8176 199.401 17.6795C201.381 18.5209 203.007 19.6522 204.242 21.0914C205.499 22.5006 206.387 24.0953 206.897 25.8683C207.437 27.5439 207.71 29.2289 207.71 30.9198C207.71 33.5841 207.142 36.0689 205.998 38.3592C204.904 40.6429 203.317 42.6215 201.254 44.2933C199.226 45.974 196.751 47.2652 193.852 48.1832C190.937 49.106 187.683 49.5598 184.1 49.5598C182.707 49.5598 181.357 49.4642 180.051 49.2717C178.723 49.1227 177.419 48.8268 176.143 48.3848C176.128 48.3796 176.113 48.3741 176.098 48.3683C174.872 47.8778 173.631 47.2442 172.376 46.4715L172.361 46.4621C171.126 45.6721 169.862 44.6478 168.566 43.4001C168.318 43.1615 168.211 42.8123 168.281 42.4756L170.311 32.7456C170.408 32.282 170.816 31.9498 171.29 31.9498H182.35C182.638 31.9498 182.912 32.0742 183.102 32.2911C183.292 32.508 183.379 32.7962 183.341 33.082C183.249 33.7728 183.181 34.3649 183.136 34.8603C183.093 35.3254 183.07 36.1035 183.07 37.2198C183.07 39.5226 183.379 40.9355 183.83 41.6635C184.261 42.3594 184.808 42.6598 185.57 42.6598C186.448 42.6598 187.193 42.3399 187.854 41.6421C188.592 40.8627 189.204 39.8819 189.677 38.6796C190.162 37.3988 190.518 36.0231 190.741 34.55C190.968 33.0524 191.08 31.6562 191.08 30.3598C191.08 29.4764 191.014 28.645 190.883 27.8642L190.882 27.8558C190.755 27.0481 190.547 26.3804 190.275 25.837C190.02 25.3257 189.688 24.9505 189.285 24.6819C189.27 24.6716 189.255 24.6609 189.24 24.6498C188.885 24.384 188.408 24.2198 187.74 24.2198C187.108 24.2198 186.386 24.4126 185.562 24.866C184.854 25.2552 184.057 26.0837 183.21 27.5103C183.029 27.8138 182.703 27.9998 182.35 27.9998H173.74C173.438 27.9998 173.152 27.8632 172.962 27.6282C172.772 27.3933 172.699 27.085 172.762 26.7897L177.802 3.33968ZM179.588 4.5498L174.978 25.9998H181.792C182.638 24.6823 183.563 23.6826 184.598 23.1136C185.64 22.5404 186.692 22.2198 187.74 22.2198C188.742 22.2198 189.656 22.4706 190.417 23.033C191.123 23.5096 191.671 24.1557 192.064 24.9426C192.445 25.7047 192.704 26.5756 192.857 27.5396C193.006 28.4376 193.08 29.3781 193.08 30.3598C193.08 31.7701 192.958 33.2673 192.719 34.8496C192.475 36.4543 192.085 37.9701 191.545 39.3945L191.541 39.4055L191.541 39.4055C190.987 40.814 190.246 42.0248 189.306 43.0176C188.287 44.0931 187.025 44.6598 185.57 44.6598C184.091 44.6598 182.912 43.9802 182.13 42.7162C181.367 41.4841 181.07 39.5837 181.07 37.2198C181.07 36.0961 181.093 35.2409 181.144 34.6793C181.165 34.4525 181.189 34.2093 181.219 33.9498H172.103L170.353 42.3375C171.428 43.3378 172.455 44.147 173.432 44.7729C174.592 45.4866 175.721 46.0617 176.819 46.5025C177.956 46.8942 179.113 47.1551 180.29 47.2859C180.297 47.2867 180.304 47.2875 180.31 47.2884C180.316 47.2891 180.321 47.2898 180.326 47.2906C181.535 47.4697 182.792 47.5598 184.1 47.5598C187.516 47.5598 190.562 47.1269 193.248 46.2765C195.947 45.4218 198.184 44.2409 199.981 42.75L199.991 42.7425L199.991 42.7426C201.842 41.2437 203.239 39.4929 204.198 37.4883L204.205 37.4726C205.206 35.4717 205.71 33.2925 205.71 30.9198C205.71 29.4429 205.471 27.96 204.988 26.4676C204.985 26.4567 204.981 26.4456 204.978 26.4345C204.554 24.9508 203.813 23.6136 202.744 22.4158L202.731 22.4006C201.727 21.2301 200.369 20.2639 198.619 19.5201C196.913 18.7953 194.723 18.4098 192.01 18.4098C190.303 18.4098 188.859 18.5899 187.665 18.9313C187.657 18.9336 187.649 18.9357 187.641 18.9378C186.437 19.2498 185.332 19.6488 184.321 20.1319C183.98 20.2952 183.576 20.2518 183.277 20.0198C182.978 19.7879 182.835 19.4071 182.909 19.0359L184.099 13.0159C184.191 12.5474 184.602 12.2098 185.08 12.2098H204.498L206.108 4.5498H179.588Z" fill="white"/>
<path fill-rule="evenodd" clip-rule="evenodd" d="M159.133 2.93016C159.322 2.68995 159.611 2.5498 159.917 2.5498H170.627C170.929 2.5498 171.215 2.68626 171.405 2.92109C171.595 3.15591 171.668 3.46395 171.605 3.75923L162.085 48.2092C161.986 48.6704 161.579 48.9998 161.107 48.9998H145.987C145.686 48.9998 145.4 48.8635 145.21 48.629C145.02 48.3945 144.947 48.0867 145.009 47.7916L151.682 16.4498H145.357C145.054 16.4498 144.767 16.3119 144.577 16.0749C144.387 15.8379 144.315 15.5276 144.382 15.2313L145.432 10.5413C145.522 10.1366 145.853 9.82977 146.264 9.77018C149.047 9.36613 151.542 8.53879 153.759 7.2973L153.766 7.2932L153.766 7.29323C156.052 6.03828 157.83 4.57944 159.133 2.93016ZM160.392 4.5498C158.933 6.2835 157.038 7.77805 154.732 9.04433C152.471 10.3102 149.969 11.1735 147.235 11.6414L146.606 14.4498H152.917C153.219 14.4498 153.505 14.5861 153.695 14.8206C153.885 15.0552 153.958 15.3629 153.896 15.658L147.223 46.9998H160.299L169.391 4.5498H160.392Z" fill="white"/>
</svg>
